<svg width="22" height="16" viewBox="0 0 22 16" fill="none" xmlns="http://www.w3.org/2000/svg">
<g clip-path="url(#clip0_6_313)">
<mask id="mask0_6_313" style="mask-type:luminance" maskUnits="userSpaceOnUse" x="0" y="0" width="22" height="16">
<path d="M22 0H0V16H22V0Z" fill="white"/>
</mask>
<g mask="url(#mask0_6_313)">
<mask id="mask1_6_313" style="mask-type:luminance" maskUnits="userSpaceOnUse" x="0" y="0" width="22" height="16">
<path d="M20 0H2C0.89543 0 0 0.89543 0 2V14C0 15.1046 0.89543 16 2 16H20C21.1046 16 22 15.1046 22 14V2C22 0.89543 21.1046 0 20 0Z" fill="white"/>
</mask>
<g mask="url(#mask1_6_313)">
<path d="M20 0H2C0.89543 0 0 0.89543 0 2V14C0 15.1046 0.89543 16 2 16H20C21.1046 16 22 15.1046 22 14V2C22 0.89543 21.1046 0 20 0Z" fill="#1A47B8"/>
<path d="M19.9048 0H2.09524C0.93807 0 0 0.955126 0 2.13333V13.8667C0 15.0449 0.93807 16 2.09524 16H19.9048C21.0619 16 22 15.0449 22 13.8667V2.13333C22 0.955126 21.0619 0 19.9048 0Z" fill="#1A47B8"/>
<path opacity="0.5" fill-rule="evenodd" clip-rule="evenodd" d="M4.19049 12.2667L5.23811 11.7333L5.76192 10.6667L6.28573 11.7333L7.33335 12.2667L6.28573 12.8L5.76192 13.8667L5.23811 12.8L4.19049 12.2667ZM14.6667 3.2V4.26667H15.7143V3.2H14.6667ZM17.8095 4.26667V5.33333H18.8572V4.26667H17.8095ZM13.6191 6.4V7.46667H14.6667V6.4H13.6191ZM16.7619 7.46667V8.53333H17.8095V7.46667H16.7619ZM15.7143 10.6667V11.7333H16.7619V10.6667H15.7143Z" fill="white"/>
<path d="M9.42856 1.06667H2.09523C1.51664 1.06667 1.04761 1.54423 1.04761 2.13333V7.46667C1.04761 8.05577 1.51664 8.53333 2.09523 8.53333H9.42856C10.0071 8.53333 10.4762 8.05577 10.4762 7.46667V2.13333C10.4762 1.54423 10.0071 1.06667 9.42856 1.06667Z" fill="white"/>
<path fill-rule="evenodd" clip-rule="evenodd" d="M5.23813 5.33333H2.09528V4.26667H5.23813V2.13333H6.28575V4.26667H9.42861V5.33333H6.28575V7.46667H5.23813V5.33333ZM7.85718 6.4V7.46667H9.42861V6.4H7.85718ZM7.85718 2.13333V3.2H9.42861V2.13333H7.85718ZM2.09528 6.4V7.46667H3.6667V6.4H2.09528ZM2.09528 2.13333V3.2H3.6667V2.13333H2.09528Z" fill="#F93939"/>
</g>
</g>
</g>
<defs>
<clipPath id="clip0_6_313">
<rect width="22" height="16" fill="white"/>
</clipPath>
</defs>
</svg>
