<svg width="557" height="61" viewBox="0 0 557 61" fill="none" xmlns="http://www.w3.org/2000/svg">
<path d="M12.209 45.582C10.5273 45.6367 10.2402 43.5176 11.8672 43.0664C16.0645 41.9453 16.1875 41.7266 16.2422 36.0117C16.2969 29.2852 16.2969 22.6816 16.2422 15.9551C16.1875 9.40625 15.791 8.58594 10.5957 8.66797C6.97266 8.72266 5.05859 10.0215 2.9668 16.4609C2.40625 18.1699 0 17.8145 0.287109 15.75C0.615234 13.4395 0.957031 10.7461 1.12109 8.17578C1.23047 6.83594 1.8457 6.16602 3.74609 6.2207C17.418 6.49414 20.3848 6.49414 33.9336 6.2207C35.7793 6.16602 36.5039 6.72656 36.627 8.33984C36.791 10.8145 37.1328 13.6582 37.4199 15.8594C37.6797 17.8145 35.3691 18.0469 34.8359 16.5703C32.4434 9.92578 30.707 8.72266 27.3301 8.68164C22.1211 8.61328 21.6152 9.13281 21.5605 15.9551C21.5059 22.6816 21.5059 29.2852 21.5605 36.0117C21.6152 41.6035 21.7793 41.9453 25.9766 43.0664C27.7129 43.5176 27.1523 45.6367 25.7578 45.582C21.1094 45.418 16.8027 45.418 12.209 45.582ZM41.8934 46.3066C37.7508 46.3066 35.1668 44.4062 35.1668 40.6602C35.1668 37.1328 37.573 35.4512 42.4539 33.5508C45.6941 32.3066 47.4305 31.582 49.782 30.748C51.1902 30.2422 51.573 29.3945 51.573 27.9453V25.0332C51.573 21.9023 50.2332 19.373 45.8172 19.4277C43.2879 19.4824 41.1004 20.3301 41.1004 22.4629C41.1004 23.0781 41.1688 23.6934 41.2234 24.5273C41.4422 29.2852 35.618 29.3945 35.618 25.8125C35.618 21.957 42.4539 16.6387 48.2781 16.6387C52.5301 16.6387 56.5633 19.2637 56.5086 25.0332C56.4539 30.1328 56.4539 35 56.5086 40.209C56.5086 42.5605 58.409 43.3398 60.2547 41.7812C61.0477 41.043 62.4422 41.4941 61.6629 43.0664C60.9246 44.5156 59.1336 46.3066 56.3992 46.3066C54.157 46.3066 52.6941 45.1309 51.6414 43.3945C51.1355 42.5605 50.5203 42.4512 49.6727 43.1758C47.4852 44.9668 45.5301 46.3066 41.8934 46.3066ZM40.9363 39.375C40.9363 41.7812 42.3445 43.0664 44.8602 43.0664C49.1668 43.0664 51.573 39.4297 51.573 36.5723V34.7266C51.573 32.7031 50.7391 32.3066 49.1121 32.8125C41.784 35.1641 40.9363 37.5703 40.9363 39.375ZM72.2613 46.3066C69.3492 46.3066 66.2047 45.6914 63.7984 44.5703C62.9645 44.1875 62.6773 43.791 62.732 42.5605C62.7867 41.1113 62.7867 39.6484 62.732 37.8574C62.6773 36.2305 64.5777 36.0117 64.9742 37.4609C66.3824 42.2188 69.1715 44.2422 72.6988 44.2422C75.8434 44.2422 78.0172 42.6152 78.0172 40.2637C78.0172 38.3633 76.6227 36.2852 73.3824 34.6582C71.8102 33.8789 70.1832 33.0996 68.6109 32.3066C64.9195 30.4609 63.0191 28.0547 63.0191 24.6914C63.0191 19.6055 67.3258 16.6387 73.7105 16.6387C75.9527 16.6387 78.3043 16.9668 79.8766 17.4727C81.4898 17.9785 81.777 18.3066 81.7223 19.9336C81.6676 21.4512 81.6676 22.9551 81.7223 24.2539C81.777 25.8125 79.8219 26.0996 79.4254 24.5273C78.523 21.0547 76.6227 18.7031 73.0406 18.7031C70.1832 18.7031 67.8863 20.166 67.8863 22.9551C67.8863 24.8691 68.9527 26.5508 71.8648 28.0547C73.6559 28.957 75.4469 29.9004 77.2379 30.8027C81.2711 32.8672 82.898 35.7793 82.898 38.4727C82.898 41.7812 80.4371 46.3066 72.2613 46.3066ZM84.7465 45.4727C83.2289 45.4727 82.8871 43.5176 84.4594 43.1211C87.5355 42.3965 87.768 42.1094 87.8773 36.4629C87.9867 27.6035 87.932 21.5059 87.8227 11.4844C87.8227 9.1875 87.3168 8.46289 84.6234 7.21875C83.3383 6.60352 83.4477 5.42773 84.5687 4.92188C86.8109 3.97852 88.4379 3.19922 90.2836 2.1875C91.6918 1.39453 92.7445 1.73633 92.7445 3.58203C92.6898 12.8242 92.6898 19.373 92.7445 28.6699C92.7445 30.1875 93.8109 30.4062 94.9867 29.4629C95.9164 28.6836 96.8051 27.918 97.6801 27.1523C99.0883 25.9219 100.469 24.7051 101.877 23.4609C103.614 21.957 103.272 20.5488 101.043 19.9336C99.4164 19.5508 99.307 17.4727 101.371 17.4727C104.789 17.5273 108.317 17.5273 111.516 17.4727C113.471 17.418 113.58 19.3184 111.954 19.8789C110.108 20.4941 107.756 21.5059 105.35 23.5156L103.764 24.8691C102.164 26.25 100.592 27.6719 99.0746 29.0117C98.4594 29.5176 98.4594 29.9551 98.8559 30.3516C101.768 33.3184 104.735 36.3398 107.756 39.3066C110.162 41.7266 111.516 42.5059 113.416 43.1211C114.92 43.627 114.756 45.5273 112.856 45.4727C109.329 45.418 105.856 45.418 102.329 45.4727C100.647 45.4727 100.537 43.5723 101.877 43.1211C103.395 42.6152 103.504 41.2754 102.096 39.8125C99.307 37.0234 97.0648 34.7266 94.7133 32.4297C93.7562 31.4727 92.7992 31.9238 92.7992 33.2637V36.4629C92.7992 42 92.9223 42.3418 96.1625 43.1211C97.8441 43.5176 97.4477 45.4727 95.8891 45.4727C92.1293 45.418 88.4926 45.418 84.7465 45.4727ZM124.794 46.3066C121.882 46.3066 118.738 45.6914 116.331 44.5703C115.497 44.1875 115.21 43.791 115.265 42.5605C115.32 41.1113 115.32 39.6484 115.265 37.8574C115.21 36.2305 117.111 36.0117 117.507 37.4609C118.915 42.2188 121.704 44.2422 125.232 44.2422C128.376 44.2422 130.55 42.6152 130.55 40.2637C130.55 38.3633 129.155 36.2852 125.915 34.6582C124.343 33.8789 122.716 33.0996 121.144 32.3066C117.452 30.4609 115.552 28.0547 115.552 24.6914C115.552 19.6055 119.859 16.6387 126.243 16.6387C128.486 16.6387 130.837 16.9668 132.409 17.4727C134.023 17.9785 134.31 18.3066 134.255 19.9336C134.2 21.4512 134.2 22.9551 134.255 24.2539C134.31 25.8125 132.355 26.0996 131.958 24.5273C131.056 21.0547 129.155 18.7031 125.573 18.7031C122.716 18.7031 120.419 20.166 120.419 22.9551C120.419 24.8691 121.486 26.5508 124.398 28.0547C126.189 28.957 127.98 29.9004 129.771 30.8027C133.804 32.8672 135.431 35.7793 135.431 38.4727C135.431 41.7812 132.97 46.3066 124.794 46.3066ZM158.542 46.3066C153.893 46.3066 151.884 43.1758 151.884 39.8672C151.884 33.9336 151.938 27.9453 151.938 23.0234C151.938 20.7812 151.432 20.3848 149.409 20.3848C147.796 20.3848 147.673 18.9219 148.52 18.1973C150.53 16.4609 152.772 14.2871 154.618 12.2637C155.63 11.1426 156.915 11.7578 156.915 12.9883V16.4062C156.915 17.1309 157.421 17.4727 158.378 17.4727C160.169 17.4727 161.905 17.4727 163.696 17.418C165.938 17.3633 165.938 20.6035 163.696 20.5488C161.905 20.4941 160.169 20.4941 158.378 20.4941C157.421 20.4941 156.86 20.9453 156.86 21.834C156.86 27.6582 156.805 33.373 156.805 39.0332C156.805 43.1758 160.839 43.8457 164.366 40.9336C165.542 39.9902 166.499 40.9336 165.815 42.1641C165.091 43.4629 162.684 46.3066 158.542 46.3066ZM166.789 45.4727C165.271 45.4727 164.929 43.5176 166.502 43.1211C169.578 42.3965 169.81 42.1094 169.92 36.4629C169.974 27.9453 169.974 22.2852 169.92 12.6602C169.92 8.90039 169.25 8.33984 166.734 7.16406C165.435 6.54883 165.558 5.37305 166.666 4.86719C168.962 3.81445 170.589 2.9668 172.38 2.13281C174.171 1.28516 174.841 2.02344 174.841 3.52734C174.787 8.46289 174.787 13.3848 174.841 18.3066C174.841 19.8242 175.853 20.5488 177.48 19.4824C185.492 14.2871 193.558 16.6387 193.435 24.6367C193.38 28.5605 193.38 32.5391 193.435 36.4629C193.49 42 193.558 42.3418 196.798 43.1211C198.48 43.5176 198.084 45.4727 196.525 45.4727C192.765 45.418 189.129 45.418 185.382 45.4727C183.974 45.4727 183.523 43.5723 185.15 43.1211C188.295 42.3418 188.404 42 188.513 36.4629C188.568 33.1543 188.568 29.791 188.513 26.2637C188.404 20.2754 182.689 17.6914 177.589 21.4512C175.634 22.9004 174.841 25.3066 174.841 28.2188C174.841 30.9668 174.787 33.7148 174.841 36.4629C174.964 42 174.964 42.3418 178.205 43.1211C179.886 43.5176 179.49 45.4727 177.931 45.4727C174.171 45.418 170.535 45.418 166.789 45.4727ZM205.168 46.3066C201.026 46.3066 198.442 44.4062 198.442 40.6602C198.442 37.1328 200.848 35.4512 205.729 33.5508C208.969 32.3066 210.705 31.582 213.057 30.748C214.465 30.2422 214.848 29.3945 214.848 27.9453V25.0332C214.848 21.9023 213.508 19.373 209.092 19.4277C206.563 19.4824 204.375 20.3301 204.375 22.4629C204.375 23.0781 204.444 23.6934 204.498 24.5273C204.717 29.2852 198.893 29.3945 198.893 25.8125C198.893 21.957 205.729 16.6387 211.553 16.6387C215.805 16.6387 219.838 19.2637 219.784 25.0332C219.729 30.1328 219.729 35 219.784 40.209C219.784 42.5605 221.684 43.3398 223.53 41.7812C224.323 41.043 225.717 41.4941 224.938 43.0664C224.2 44.5156 222.409 46.3066 219.674 46.3066C217.432 46.3066 215.969 45.1309 214.916 43.3945C214.411 42.5605 213.795 42.4512 212.948 43.1758C210.76 44.9668 208.805 46.3066 205.168 46.3066ZM204.211 39.375C204.211 41.7812 205.62 43.0664 208.135 43.0664C212.442 43.0664 214.848 39.4297 214.848 36.5723V34.7266C214.848 32.7031 214.014 32.3066 212.387 32.8125C205.059 35.1641 204.211 37.5703 204.211 39.375ZM234.306 46.3066C229.657 46.3066 227.648 43.1758 227.648 39.8672C227.648 33.9336 227.702 27.9453 227.702 23.0234C227.702 20.7812 227.196 20.3848 225.173 20.3848C223.56 20.3848 223.437 18.9219 224.284 18.1973C226.294 16.4609 228.536 14.2871 230.382 12.2637C231.394 11.1426 232.679 11.7578 232.679 12.9883V16.4062C232.679 17.1309 233.185 17.4727 234.142 17.4727C235.933 17.4727 237.669 17.4727 239.46 17.418C241.702 17.3633 241.702 20.6035 239.46 20.5488C237.669 20.4941 235.933 20.4941 234.142 20.4941C233.185 20.4941 232.624 20.9453 232.624 21.834C232.624 27.6582 232.57 33.373 232.57 39.0332C232.57 43.1758 236.603 43.8457 240.13 40.9336C241.306 39.9902 242.263 40.9336 241.579 42.1641C240.855 43.4629 238.448 46.3066 234.306 46.3066ZM253.971 60.0332C252.618 60.0332 252.112 58.2422 253.794 57.7363C256.884 56.834 257.157 56.5605 257.212 51.0234C257.266 43.4629 257.266 35 257.212 27.4395C257.212 23.6934 256.432 23.1328 253.903 21.957C252.618 21.3418 252.727 20.166 253.848 19.6602C256.145 18.5938 257.882 17.7461 259.673 16.9121C261.464 16.0781 262.147 16.8027 262.147 18.3066C262.147 19.8242 263.2 20.6035 264.663 19.4824C266.85 17.8145 269.366 16.6387 272.278 16.6387C278.266 16.6387 284.542 21.2871 284.542 31.0215C284.542 40.6055 278.321 46.3066 270.036 46.3066C267.794 46.3066 266.112 45.8691 263.993 45.0762C262.708 44.5703 262.147 44.9668 262.147 46.6484V51.0234C262.147 56.5605 262.257 56.9023 265.497 57.6816C267.179 58.0781 266.796 60.0332 265.223 60.0332C261.641 59.9785 257.554 59.9785 253.971 60.0332ZM262.147 36.9551C262.147 40.6055 265.893 44.1875 270.378 44.1875C276.024 44.1875 278.936 39.8125 278.936 32.7031C278.936 24.8145 275.245 19.7148 269.817 19.7148C265.552 19.7148 262.147 23.0234 262.147 27.4395V36.9551ZM310.849 45.9785C309.058 46.7578 308.334 46.1426 308.334 44.6387C308.334 42.957 307.103 42.5605 305.75 43.4629C297.97 48.6582 289.74 46.4844 289.74 38.4727V23.4062C289.74 20.4941 289.466 20.1113 286.664 19.8242C284.873 19.6602 284.873 17.5273 286.609 17.3633C288.673 17.1992 290.41 16.9668 292.379 16.6934C294.115 16.4062 294.662 16.8027 294.662 18.375V36.4629C294.662 42.5605 300.322 45.418 305.586 41.5488C307.609 40.0996 308.334 37.4062 308.334 34.6582V23.4062C308.334 20.4941 308.046 20.1113 305.257 19.8242C303.466 19.6602 303.466 17.5273 305.203 17.3633C307.267 17.1992 309.004 16.9668 310.959 16.6934C312.695 16.4062 313.255 16.8027 313.255 18.375V37.748C313.255 40.4824 313.871 41.2207 316.728 41.2207C318.519 41.2207 318.574 43.0664 317.234 43.5723C314.937 44.4062 312.818 45.1309 310.849 45.9785ZM327.996 46.3066C323.348 46.3066 321.338 43.1758 321.338 39.8672C321.338 33.9336 321.393 27.9453 321.393 23.0234C321.393 20.7812 320.887 20.3848 318.864 20.3848C317.25 20.3848 317.127 18.9219 317.975 18.1973C319.985 16.4609 322.227 14.2871 324.073 12.2637C325.084 11.1426 326.37 11.7578 326.37 12.9883V16.4062C326.37 17.1309 326.875 17.4727 327.832 17.4727C329.623 17.4727 331.36 17.4727 333.151 17.418C335.393 17.3633 335.393 20.6035 333.151 20.5488C331.36 20.4941 329.623 20.4941 327.832 20.4941C326.875 20.4941 326.315 20.9453 326.315 21.834C326.315 27.6582 326.26 33.373 326.26 39.0332C326.26 43.1758 330.293 43.8457 333.821 40.9336C334.996 39.9902 335.954 40.9336 335.27 42.1641C334.545 43.4629 332.139 46.3066 327.996 46.3066ZM361.717 46.3066C353.145 46.3066 348.1 39.5391 348.1 31.8691C348.1 23.6934 353.596 16.5703 362.838 16.5703C368.211 16.5703 371.793 18.9902 372.859 21.7246C374.486 26.0449 368.936 27.8906 367.309 23.4062C366.133 20.1113 364.396 18.7031 361.539 18.7031C357.287 18.7031 353.705 21.7246 353.705 29.627C353.705 38.1992 357.848 42.6699 363.508 42.6699C367.09 42.6699 369.66 40.9336 371.232 39.252C372.299 38.1992 373.475 39.0332 372.914 40.209C371.396 43.4629 367.309 46.3066 361.717 46.3066ZM381.557 46.3066C377.415 46.3066 374.831 44.4062 374.831 40.6602C374.831 37.1328 377.237 35.4512 382.118 33.5508C385.358 32.3066 387.095 31.582 389.446 30.748C390.854 30.2422 391.237 29.3945 391.237 27.9453V25.0332C391.237 21.9023 389.897 19.373 385.481 19.4277C382.952 19.4824 380.764 20.3301 380.764 22.4629C380.764 23.0781 380.833 23.6934 380.888 24.5273C381.106 29.2852 375.282 29.3945 375.282 25.8125C375.282 21.957 382.118 16.6387 387.942 16.6387C392.194 16.6387 396.227 19.2637 396.173 25.0332C396.118 30.1328 396.118 35 396.173 40.209C396.173 42.5605 398.073 43.3398 399.919 41.7812C400.712 41.043 402.106 41.4941 401.327 43.0664C400.589 44.5156 398.798 46.3066 396.063 46.3066C393.821 46.3066 392.358 45.1309 391.305 43.3945C390.8 42.5605 390.184 42.4512 389.337 43.1758C387.149 44.9668 385.194 46.3066 381.557 46.3066ZM380.6 39.375C380.6 41.7812 382.009 43.0664 384.524 43.0664C388.831 43.0664 391.237 39.4297 391.237 36.5723V34.7266C391.237 32.7031 390.403 32.3066 388.776 32.8125C381.448 35.1641 380.6 37.5703 380.6 39.375ZM401.959 45.4727C400.605 45.4727 400.099 43.5723 401.781 43.1211C404.925 42.3418 405.035 42 405.144 36.4629C405.199 33.4277 405.199 30.4609 405.144 27.4395C405.089 23.6934 404.474 23.1328 401.959 21.957C400.66 21.3418 400.769 20.166 401.89 19.6602C404.187 18.5938 405.814 17.7461 407.605 16.9121C409.396 16.0781 410.066 16.8027 410.066 18.3066C410.066 19.8789 411.187 20.5488 412.759 19.4277C414.947 17.8691 416.957 16.6387 419.254 16.6387C425.693 16.6387 422.836 26.0449 417.189 22.0117C413.593 19.4824 410.189 22.1211 410.066 28.2871C410.011 31.0215 410.011 33.7148 410.066 36.4629C410.189 42.0547 410.298 42.1641 415.056 43.1211C416.738 43.4629 416.341 45.4727 414.769 45.4727C410.066 45.418 405.541 45.418 401.959 45.4727ZM436.223 46.3066C428.211 46.3066 422.551 40.4277 422.551 31.6367C422.551 22.5176 429.332 16.6387 436.674 16.6387C442.936 16.6387 447.981 21 447.871 27.4395C447.871 28.834 447.202 29.2852 445.793 29.2852H429.838C428.663 29.2852 428.047 30.0234 428.157 31.5273C428.717 39.3066 432.969 42.6699 437.959 42.6699C440.639 42.6699 443.442 41.6582 445.739 39.1973C446.696 38.2539 447.981 38.9785 447.311 40.2637C444.727 45.0215 439.969 46.3066 436.223 46.3066ZM428.553 25.4297C428.266 26.6602 428.881 27.3301 429.893 27.3301H440.584C441.76 27.3301 442.321 26.6055 442.211 25.252C441.87 20.5488 438.793 18.7031 435.936 18.7031C432.914 18.7031 429.551 20.7266 428.553 25.4297ZM461.699 45.4727C460.4 45.4727 459.785 43.5723 461.576 43.1211C464.324 42.3965 464.83 42 464.885 37.5703C464.939 32.252 464.939 26.9336 464.885 21.6152C464.885 20.7812 464.543 20.3848 463.654 20.3848H461.918C460.182 20.3848 460.072 18.252 461.631 17.8145C464.611 17.0215 464.885 16.4609 464.885 15.1211C464.885 4.14258 475.303 0 480.785 2.29688C486.609 4.75781 481.346 11.1973 477.982 7.10938C474.346 2.69336 469.875 4.59375 469.752 10.418C469.752 12.2637 469.752 13.043 469.807 16.4062C469.807 17.1309 470.312 17.4727 471.27 17.4727C473.061 17.4727 474.797 17.4727 476.588 17.418C478.994 17.3633 478.83 20.6035 476.588 20.5488C474.797 20.4941 473.061 20.4941 471.27 20.4941C470.312 20.4941 469.807 21 469.807 21.9023C469.752 27.2207 469.752 32.252 469.807 37.5703C469.875 41.7812 470.203 42.4512 474.742 43.1211C476.369 43.3398 476.246 45.4727 474.455 45.4727C469.875 45.418 466.006 45.418 461.699 45.4727ZM481.376 45.4727C479.858 45.4727 479.516 43.5176 481.089 43.1211C484.165 42.3965 484.397 42.1094 484.507 36.4629C484.561 33.4277 484.561 30.4609 484.507 27.4395C484.452 23.6934 483.837 23.1328 481.321 21.957C480.022 21.3418 480.132 20.166 481.253 19.6602C483.221 18.7578 484.725 18.0332 486.968 16.9121C488.759 16.0234 489.429 16.8027 489.429 18.3066C489.374 24.3633 489.374 30.4062 489.429 36.4629C489.552 42 489.552 42.3418 492.792 43.1211C494.473 43.5176 494.077 45.4727 492.518 45.4727C488.759 45.418 485.122 45.418 481.376 45.4727ZM482.647 8.39453C482.647 6.34375 484.356 4.63477 486.462 4.63477C488.581 4.63477 490.29 6.23438 490.29 8.16211C490.29 10.2949 488.581 12.0449 486.462 12.0449C484.356 12.0449 482.647 10.4043 482.647 8.39453ZM494.709 45.4727C493.355 45.4727 492.849 43.5723 494.531 43.1211C497.675 42.3418 497.785 42 497.894 36.4629C497.949 33.4277 497.949 30.4609 497.894 27.4395C497.839 23.6934 497.224 23.1328 494.709 21.957C493.41 21.3418 493.519 20.166 494.64 19.6602C496.937 18.5938 498.564 17.7461 500.355 16.9121C502.146 16.0781 502.816 16.8027 502.816 18.3066C502.816 19.8789 503.937 20.5488 505.509 19.4277C507.697 17.8691 509.707 16.6387 512.004 16.6387C518.443 16.6387 515.586 26.0449 509.939 22.0117C506.343 19.4824 502.939 22.1211 502.816 28.2871C502.761 31.0215 502.761 33.7148 502.816 36.4629C502.939 42.0547 503.048 42.1641 507.806 43.1211C509.488 43.4629 509.091 45.4727 507.519 45.4727C502.816 45.418 498.291 45.418 494.709 45.4727ZM525.883 46.3066C522.971 46.3066 519.827 45.6914 517.42 44.5703C516.586 44.1875 516.299 43.791 516.354 42.5605C516.409 41.1113 516.409 39.6484 516.354 37.8574C516.299 36.2305 518.2 36.0117 518.596 37.4609C520.004 42.2188 522.793 44.2422 526.321 44.2422C529.465 44.2422 531.639 42.6152 531.639 40.2637C531.639 38.3633 530.245 36.2852 527.004 34.6582C525.432 33.8789 523.805 33.0996 522.233 32.3066C518.541 30.4609 516.641 28.0547 516.641 24.6914C516.641 19.6055 520.948 16.6387 527.332 16.6387C529.575 16.6387 531.926 16.9668 533.498 17.4727C535.112 17.9785 535.399 18.3066 535.344 19.9336C535.289 21.4512 535.289 22.9551 535.344 24.2539C535.399 25.8125 533.444 26.0996 533.047 24.5273C532.145 21.0547 530.245 18.7031 526.662 18.7031C523.805 18.7031 521.508 20.166 521.508 22.9551C521.508 24.8691 522.575 26.5508 525.487 28.0547C527.278 28.957 529.069 29.9004 530.86 30.8027C534.893 32.8672 536.52 35.7793 536.52 38.4727C536.52 41.7812 534.059 46.3066 525.883 46.3066ZM548.595 46.3066C543.946 46.3066 541.937 43.1758 541.937 39.8672C541.937 33.9336 541.991 27.9453 541.991 23.0234C541.991 20.7812 541.486 20.3848 539.462 20.3848C537.849 20.3848 537.726 18.9219 538.573 18.1973C540.583 16.4609 542.825 14.2871 544.671 12.2637C545.683 11.1426 546.968 11.7578 546.968 12.9883V16.4062C546.968 17.1309 547.474 17.4727 548.431 17.4727C550.222 17.4727 551.958 17.4727 553.749 17.418C555.991 17.3633 555.991 20.6035 553.749 20.5488C551.958 20.4941 550.222 20.4941 548.431 20.4941C547.474 20.4941 546.913 20.9453 546.913 21.834C546.913 27.6582 546.859 33.373 546.859 39.0332C546.859 43.1758 550.892 43.8457 554.419 40.9336C555.595 39.9902 556.552 40.9336 555.868 42.1641C555.144 43.4629 552.737 46.3066 548.595 46.3066Z" fill="#280310"/>
</svg>
