<svg width="99" height="30" viewBox="0 0 99 30" fill="none" xmlns="http://www.w3.org/2000/svg">
<g clip-path="url(#clip0_6_123)">
<path d="M29.8835 8.93529C29.6843 4.48124 26.0496 0.861828 21.5573 0.64422C19.3582 0.536795 17.3252 1.23506 15.7318 2.46495C15.3916 2.728 14.9089 2.728 14.5673 2.46495C12.9739 1.23368 10.9409 0.536795 8.74178 0.64422C4.2495 0.861828 0.614768 4.48124 0.414221 8.93529C0.316023 11.1279 1.03799 13.1496 2.30074 14.728C2.57321 15.0696 2.57321 15.5557 2.30074 15.8959C1.03937 17.4756 0.317405 19.4974 0.414221 21.69C0.613385 26.144 4.24674 29.7634 8.7404 29.9824C10.9395 30.0898 12.9726 29.3916 14.5659 28.1616C14.9062 27.8986 15.3888 27.8986 15.7305 28.1616C17.3238 29.3916 19.3569 30.0885 21.556 29.9824C26.0482 29.7648 29.683 26.144 29.8821 21.69C29.9804 19.4974 29.2584 17.4756 27.9956 15.8972C27.7232 15.5557 27.7232 15.0696 27.9956 14.7293C29.2584 13.1524 29.9804 11.1293 29.8821 8.93667L29.8835 8.93529ZM25.8905 15.7196C27.7342 17.4329 28.6816 20.0841 27.9569 22.9061C27.3138 25.4016 25.3291 27.3684 22.8118 28.0047C19.9627 28.7236 17.2892 27.7843 15.5604 25.954C15.3377 25.7184 14.9629 25.7184 14.7401 25.954C13.0113 27.7829 10.3378 28.7236 7.48868 28.0047C4.97008 27.3698 2.98537 25.4016 2.34361 22.9061C1.6175 20.0841 2.56629 17.4343 4.40994 15.7196C4.64783 15.4992 4.64783 15.1274 4.40994 14.907C2.56629 13.1937 1.61889 10.5425 2.34361 7.72053C2.98675 5.22496 4.97147 3.25824 7.48868 2.62195C10.3378 1.90302 13.0113 2.84231 14.7401 4.67268C14.9629 4.90819 15.3377 4.90819 15.5604 4.67268C17.2892 2.84369 19.9627 1.90302 22.8118 2.62195C25.3304 3.25687 27.3152 5.22496 27.9569 7.72053C28.683 10.5425 27.7342 13.1937 25.8905 14.907C25.6527 15.1274 25.6527 15.4992 25.8905 15.7196Z" fill="#280310"/>
<path d="M21.5211 5.04462C20.0136 5.04462 18.6872 5.80072 17.8851 7.11737C17.2516 8.15579 16.8367 9.30722 16.7039 11.6513C16.6748 12.1609 16.2544 12.5617 15.7412 12.5685C15.549 12.5713 15.3526 12.5727 15.148 12.5727C14.9432 12.5727 14.7455 12.5727 14.5546 12.5685C14.0414 12.5617 13.6196 12.1609 13.592 11.6513C13.4592 9.30584 13.0429 8.15441 12.4109 7.11737C11.6073 5.80072 10.2823 5.04462 8.77473 5.04462C7.00852 5.04462 5.03071 6.6312 5.03071 8.75352C5.03071 10.5068 5.91311 12.0397 7.4511 12.9555C8.91714 13.8287 10.7152 14.37 15.1494 14.37C19.5835 14.37 21.3815 13.8287 22.8476 12.9555C24.3856 12.0397 25.268 10.5082 25.268 8.75352C25.268 6.6312 23.2915 5.04462 21.524 5.04462H21.5211ZM8.38051 11.4158C7.03894 10.617 6.83978 9.405 6.83978 8.75489C6.83978 7.72474 7.9006 6.8433 8.77059 6.8433C9.64049 6.8433 10.375 7.25923 10.8549 8.04839C11.35 8.86233 11.6778 9.80854 11.7843 11.8427C11.7995 12.1512 11.5284 12.395 11.22 12.3495C9.71798 12.1292 8.98352 11.7752 8.38189 11.4172H8.38051V11.4158ZM21.9112 11.4158C21.3096 11.7752 20.5737 12.1292 19.0732 12.3482C18.7647 12.3923 18.4936 12.1485 18.5089 11.8413C18.6153 9.80854 18.9417 8.86095 19.4382 8.04702C19.9181 7.25923 20.6387 6.84192 21.5225 6.84192C22.4064 6.84192 23.4533 7.72474 23.4533 8.75352C23.4533 9.405 23.2528 10.6156 21.9126 11.4144L21.9112 11.4158Z" fill="#280310"/>
<path d="M8.77587 25.5807C10.2834 25.5807 11.6099 24.8245 12.412 23.5079C13.0454 22.4694 13.4604 21.3181 13.5932 18.974C13.6222 18.4644 14.0427 18.0636 14.5558 18.0568C14.748 18.054 14.9445 18.0526 15.1491 18.0526C15.3538 18.0526 15.5502 18.0526 15.7425 18.0568C16.2556 18.0636 16.6774 18.4644 16.7051 18.974C16.8379 21.3195 17.2542 22.4708 17.8862 23.5079C18.6898 24.8245 20.0148 25.5807 21.5224 25.5807C23.2885 25.5807 25.2663 23.9941 25.2663 21.8717C25.2663 20.1185 24.3839 18.5856 22.846 17.6698C21.3799 16.7966 19.5819 16.2553 15.1477 16.2553C10.7136 16.2553 8.9156 16.7966 7.44952 17.6698C5.91154 18.5856 5.02913 20.1171 5.02913 21.8717C5.02913 23.9941 7.00555 25.5807 8.77311 25.5807H8.77587ZM21.918 19.2095C23.2595 20.0083 23.4587 21.2203 23.4587 21.8703C23.4587 22.9005 22.3979 23.782 21.5279 23.782C20.6579 23.782 19.9235 23.366 19.4436 22.5769C18.9484 21.7629 18.6207 20.8154 18.5141 18.7825C18.499 18.4741 18.77 18.2303 19.0784 18.2758C20.5805 18.4961 21.3149 18.8501 21.9166 19.2081H21.918V19.2095ZM8.38725 19.2095C8.98888 18.8501 9.72472 18.4961 11.2253 18.2771C11.5337 18.233 11.8049 18.4768 11.7896 18.7839C11.6831 20.8168 11.3567 21.7643 10.8602 22.5782C10.3802 23.366 9.65964 23.7847 8.77587 23.7847C7.8921 23.7847 6.84511 22.9019 6.84511 21.8731C6.84511 21.2217 7.04566 20.0111 8.38587 19.2122H8.38725V19.2095Z" fill="#280310"/>
<path d="M29.8835 8.93529C29.6843 4.48124 26.0496 0.861828 21.5573 0.64422C19.3582 0.536795 17.3252 1.23506 15.7318 2.46495C15.3916 2.728 14.9089 2.728 14.5673 2.46495C12.9739 1.23368 10.9409 0.536795 8.74178 0.64422C4.2495 0.861828 0.614768 4.48124 0.414221 8.93529C0.316023 11.1279 1.03799 13.1496 2.30074 14.728C2.57321 15.0696 2.57321 15.5557 2.30074 15.8959C1.03937 17.4756 0.317405 19.4974 0.414221 21.69C0.613385 26.144 4.24674 29.7634 8.7404 29.9824C10.9395 30.0898 12.9726 29.3916 14.5659 28.1616C14.9062 27.8986 15.3888 27.8986 15.7305 28.1616C17.3238 29.3916 19.3569 30.0885 21.556 29.9824C26.0482 29.7648 29.683 26.144 29.8821 21.69C29.9804 19.4974 29.2584 17.4756 27.9956 15.8972C27.7232 15.5557 27.7232 15.0696 27.9956 14.7293C29.2584 13.1524 29.9804 11.1293 29.8821 8.93667L29.8835 8.93529ZM25.8905 15.7196C27.7342 17.4329 28.6816 20.0841 27.9569 22.9061C27.3138 25.4016 25.3291 27.3684 22.8118 28.0047C19.9627 28.7236 17.2892 27.7843 15.5604 25.954C15.3377 25.7184 14.9629 25.7184 14.7401 25.954C13.0113 27.7829 10.3378 28.7236 7.48868 28.0047C4.97008 27.3698 2.98537 25.4016 2.34361 22.9061C1.6175 20.0841 2.56629 17.4343 4.40994 15.7196C4.64783 15.4992 4.64783 15.1274 4.40994 14.907C2.56629 13.1937 1.61889 10.5425 2.34361 7.72053C2.98675 5.22496 4.97147 3.25824 7.48868 2.62195C10.3378 1.90302 13.0113 2.84231 14.7401 4.67268C14.9629 4.90819 15.3377 4.90819 15.5604 4.67268C17.2892 2.84369 19.9627 1.90302 22.8118 2.62195C25.3304 3.25687 27.3152 5.22496 27.9569 7.72053C28.683 10.5425 27.7342 13.1937 25.8905 14.907C25.6527 15.1274 25.6527 15.4992 25.8905 15.7196Z" fill="#280310"/>
<path d="M21.5211 5.04462C20.0136 5.04462 18.6872 5.80072 17.8851 7.11737C17.2516 8.15579 16.8367 9.30722 16.7039 11.6513C16.6748 12.1609 16.2544 12.5617 15.7412 12.5685C15.549 12.5713 15.3526 12.5727 15.148 12.5727C14.9432 12.5727 14.7455 12.5727 14.5546 12.5685C14.0414 12.5617 13.6196 12.1609 13.592 11.6513C13.4592 9.30584 13.0429 8.15441 12.4109 7.11737C11.6073 5.80072 10.2823 5.04462 8.77473 5.04462C7.00852 5.04462 5.03071 6.6312 5.03071 8.75352C5.03071 10.5068 5.91311 12.0397 7.4511 12.9555C8.91714 13.8287 10.7152 14.37 15.1494 14.37C19.5835 14.37 21.3815 13.8287 22.8476 12.9555C24.3856 12.0397 25.268 10.5082 25.268 8.75352C25.268 6.6312 23.2915 5.04462 21.524 5.04462H21.5211ZM8.38051 11.4158C7.03894 10.617 6.83978 9.405 6.83978 8.75489C6.83978 7.72474 7.9006 6.8433 8.77059 6.8433C9.64049 6.8433 10.375 7.25923 10.8549 8.04839C11.35 8.86233 11.6778 9.80854 11.7843 11.8427C11.7995 12.1512 11.5284 12.395 11.22 12.3495C9.71798 12.1292 8.98352 11.7752 8.38189 11.4172H8.38051V11.4158ZM21.9112 11.4158C21.3096 11.7752 20.5737 12.1292 19.0732 12.3482C18.7647 12.3923 18.4936 12.1485 18.5089 11.8413C18.6153 9.80854 18.9417 8.86095 19.4382 8.04702C19.9181 7.25923 20.6387 6.84192 21.5225 6.84192C22.4064 6.84192 23.4533 7.72474 23.4533 8.75352C23.4533 9.405 23.2528 10.6156 21.9126 11.4144L21.9112 11.4158Z" fill="#280310"/>
<path d="M8.77587 25.5807C10.2834 25.5807 11.6099 24.8245 12.412 23.5079C13.0454 22.4694 13.4604 21.3181 13.5932 18.974C13.6222 18.4644 14.0427 18.0636 14.5558 18.0568C14.748 18.054 14.9445 18.0526 15.1491 18.0526C15.3538 18.0526 15.5502 18.0526 15.7425 18.0568C16.2556 18.0636 16.6774 18.4644 16.7051 18.974C16.8379 21.3195 17.2542 22.4708 17.8862 23.5079C18.6898 24.8245 20.0148 25.5807 21.5224 25.5807C23.2885 25.5807 25.2663 23.9941 25.2663 21.8717C25.2663 20.1185 24.3839 18.5856 22.846 17.6698C21.3799 16.7966 19.5819 16.2553 15.1477 16.2553C10.7136 16.2553 8.9156 16.7966 7.44952 17.6698C5.91154 18.5856 5.02913 20.1171 5.02913 21.8717C5.02913 23.9941 7.00555 25.5807 8.77311 25.5807H8.77587ZM21.918 19.2095C23.2595 20.0083 23.4587 21.2203 23.4587 21.8703C23.4587 22.9005 22.3979 23.782 21.5279 23.782C20.6579 23.782 19.9235 23.366 19.4436 22.5769C18.9484 21.7629 18.6207 20.8154 18.5141 18.7825C18.499 18.4741 18.77 18.2303 19.0784 18.2758C20.5805 18.4961 21.3149 18.8501 21.9166 19.2081H21.918V19.2095ZM8.38725 19.2095C8.98888 18.8501 9.72472 18.4961 11.2253 18.2771C11.5337 18.233 11.8049 18.4768 11.7896 18.7839C11.6831 20.8168 11.3567 21.7643 10.8602 22.5782C10.3802 23.366 9.65964 23.7847 8.77587 23.7847C7.8921 23.7847 6.84511 22.9019 6.84511 21.8731C6.84511 21.2217 7.04566 20.0111 8.38587 19.2122H8.38725V19.2095Z" fill="#280310"/>
<path d="M61.6897 10.2439C64.8487 10.2439 67.4115 12.4406 67.3576 15.6936C67.3576 16.0875 67.2552 16.3671 67.0464 16.5476C66.8376 16.728 66.5277 16.8051 66.1211 16.8065H58.7023C58.3842 16.8065 58.1518 16.9015 58.008 17.0819C57.8711 17.2513 57.8089 17.502 57.8295 17.8326L57.8351 17.9L57.8503 18.0598C58.0135 19.6987 58.5584 20.879 59.3343 21.6558C60.1352 22.4574 61.1835 22.8306 62.3177 22.8306C63.568 22.8306 64.8501 22.3761 65.9358 21.2233C66.2566 20.8997 66.6509 20.8749 66.9081 21.0429C67.1667 21.2123 67.2829 21.5704 67.0602 21.9946C65.7532 24.3979 63.3384 25.0411 61.4753 25.0411C59.4671 25.0411 57.7507 24.3028 56.5364 23.0192C55.3262 21.7384 54.6167 19.9164 54.6112 17.7431H54.6098V17.721C54.6098 13.1747 58.0149 10.2439 61.6911 10.2439H61.6897ZM61.3398 11.6942C60.0273 11.6942 58.4368 12.5673 57.9997 14.6056C57.9375 14.8701 57.9748 15.0698 58.0771 15.202C58.1781 15.3342 58.3496 15.4058 58.5626 15.4058H63.438C63.6925 15.4058 63.8764 15.3273 63.9898 15.1813C64.1046 15.034 64.153 14.815 64.1268 14.523C64.0534 13.5066 63.6662 12.8 63.1433 12.3469C62.6206 11.8939 61.9595 11.6942 61.3398 11.6942Z" fill="#280310"/>
<path d="M71.5071 10.5302C71.9788 10.3236 72.3383 10.2809 72.5845 10.402C72.85 10.5315 72.9745 10.8414 72.9745 11.3014C72.9469 14.6151 72.9469 17.3462 72.9745 20.1861L72.9856 20.6543C72.9967 21.095 73.0105 21.4559 73.0368 21.752C73.0713 22.1487 73.1281 22.431 73.229 22.6431C73.4047 23.0122 73.7159 23.1733 74.3023 23.3483L74.5706 23.4254L74.6592 23.4557C74.8569 23.5314 74.998 23.643 75.0837 23.7696C75.1834 23.9143 75.211 24.0809 75.175 24.2366C75.1031 24.5492 74.7795 24.8192 74.2788 24.826C72.4532 24.8192 70.5943 24.8192 68.7202 24.826C68.2347 24.8192 67.9263 24.5506 67.86 24.2393C67.7921 23.9281 67.9692 23.5837 68.4353 23.4323L68.6925 23.3593C69.2568 23.1912 69.5777 23.0315 69.7686 22.661C69.8779 22.4475 69.9456 22.1638 69.9885 21.7644C70.0314 21.365 70.0479 20.8527 70.0604 20.1847L70.0701 19.6724C70.088 18.4686 70.0853 17.2016 70.0604 15.9083C70.0493 15.0173 69.9678 14.509 69.7409 14.1482C69.5141 13.7873 69.142 13.5711 68.539 13.2696C68.1683 13.0685 67.9913 12.8233 68.001 12.5795C68.0107 12.3371 68.2071 12.1085 68.5543 11.9405L69.2472 11.6113C69.9207 11.2905 70.5653 10.9819 71.4075 10.5715L71.5029 10.5274L71.5071 10.5302ZM71.2637 4.28572C72.4532 4.28572 73.4171 5.17542 73.4171 6.27309C73.4171 7.45752 72.4614 8.42845 71.2637 8.42845C70.066 8.42845 69.1241 7.51675 69.1241 6.3874C69.1241 5.25806 70.088 4.28572 71.2637 4.28572Z" fill="#280310"/>
<path d="M87.6653 3.25008C88.0857 3.03936 88.4492 2.96637 88.7154 3.06829C89.001 3.17847 89.1601 3.48834 89.1592 4.01721L89.1479 6.21392C89.126 11.2106 89.1243 15.3961 89.1438 20.7453V20.8431C89.1552 21.3196 89.2461 21.6336 89.423 21.8347C89.6112 22.0481 89.8993 22.1404 90.3067 22.1583L90.3554 22.1611C90.5931 22.1804 90.7716 22.2575 90.8934 22.3704C91.0248 22.4916 91.0914 22.6514 91.1011 22.8195C91.1173 23.1334 90.9364 23.4736 90.6029 23.6416L90.5339 23.6733C90.1054 23.8482 89.6502 24.0631 89.1933 24.2766C88.7373 24.4901 88.2804 24.7049 87.8463 24.8771C87.443 25.034 87.1111 25.0712 86.8684 24.9679C86.625 24.8646 86.4797 24.6222 86.444 24.238L86.4343 24.1705C86.3791 23.8413 86.216 23.6306 85.9977 23.548C85.7632 23.4598 85.4605 23.5136 85.1457 23.7366C84.1646 24.4776 83.0415 25.0451 81.421 25.0437C78.4913 25.0423 75.3213 22.5853 75.302 17.9288L75.2992 17.9316V17.8793L75.302 17.663C75.349 15.4429 76.0931 13.5808 77.3296 12.2628C78.6062 10.9021 80.4069 10.1212 82.5035 10.1226L82.6934 10.1253C83.6363 10.1474 84.4803 10.3333 85.3047 10.6473C85.6504 10.7767 85.8939 10.7712 86.0513 10.6596C86.2087 10.5482 86.2874 10.3264 86.2874 10.0013V7.76333C86.2793 7.2565 86.199 6.93836 85.9977 6.6877C85.7803 6.41913 85.4208 6.22356 84.8422 5.95913C84.447 5.77045 84.2612 5.51153 84.2669 5.25536C84.2725 5.00057 84.4705 4.76093 84.8162 4.60943L85.17 4.4593C85.9977 4.1026 86.8206 3.70044 87.5752 3.29278L87.6596 3.2487L87.6653 3.25008ZM82.4483 11.6114C81.4389 11.6114 80.4526 11.9323 79.7195 12.7627C78.9865 13.5919 78.5025 14.9333 78.5025 16.9785C78.5025 18.8915 78.9437 20.4216 79.6947 21.4738C80.4415 22.5192 81.494 23.0908 82.7275 23.0976H82.7502C84.6945 23.0976 86.285 21.613 86.285 19.5002V14.9333C86.285 13.4582 84.8479 11.6141 82.4483 11.6141V11.6114Z" fill="#280310"/>
<path d="M95.1982 10.5302C95.6697 10.3236 96.0292 10.2809 96.2751 10.4021C96.5412 10.5315 96.6654 10.8414 96.6654 11.3014C96.6378 14.6151 96.6378 17.3462 96.6654 20.1861L96.6816 21.0703C96.6865 21.3292 96.6914 21.5565 96.7011 21.7548C96.7198 22.1514 96.7555 22.4338 96.8342 22.6459C96.9129 22.8566 97.0362 22.9984 97.2342 23.1155C97.4079 23.2174 97.6408 23.2986 97.95 23.3882L98.0887 23.4268L98.1772 23.4571C98.3752 23.5328 98.5164 23.6444 98.6016 23.771C98.7014 23.9157 98.729 24.0823 98.6933 24.238C98.621 24.5506 98.2973 24.8205 97.7966 24.8274C95.9708 24.8205 94.4606 24.8205 92.5869 24.8274C92.1016 24.8205 91.7925 24.552 91.7267 24.2407C91.6586 23.9295 91.8371 23.5851 92.3021 23.4336L92.4335 23.3964C93.0705 23.2146 93.383 23.0604 93.5469 22.6638C93.6353 22.4503 93.6808 22.1666 93.7067 21.7658C93.7335 21.3664 93.74 20.854 93.7514 20.1861L93.7611 19.6737C93.779 18.47 93.7765 17.203 93.7514 15.9097C93.74 15.0186 93.6589 14.5104 93.4317 14.1496C93.2053 13.7887 92.8328 13.5725 92.2299 13.2709C91.859 13.0699 91.6805 12.8247 91.6919 12.5809C91.7016 12.3385 91.898 12.1099 92.2453 11.9419C93.2061 11.4874 93.9753 11.121 95.1 10.5729L95.195 10.5288L95.1982 10.5302ZM94.9548 4.28572C96.1436 4.28572 97.1076 5.17542 97.1076 6.27309C97.1076 7.45752 96.1525 8.42845 94.9548 8.42845C93.7571 8.42845 92.8133 7.51675 92.8133 6.38741C92.8133 5.25806 93.7773 4.28572 94.9548 4.28572Z" fill="#280310"/>
<path d="M35.7279 5.67548L36.4236 5.68649C38.0694 5.70853 39.8688 5.7044 41.4925 5.67548H41.5423C42.0444 5.68649 42.3431 5.97159 42.4081 6.30764C42.4759 6.65333 42.2947 7.04722 41.8479 7.23866C41.0886 7.52513 40.6627 7.73034 40.4206 8.04435C40.18 8.3584 40.1205 8.78529 40.1108 9.52767C40.0956 10.4504 40.0887 11.3085 40.0859 12.0576V13.7613C40.0859 14.1497 40.4026 14.4651 40.7927 14.4651H48.9999C49.3913 14.4651 49.7067 14.1497 49.7067 13.7613V12.0576L49.7038 11.4585C49.7011 11.0522 49.6983 10.6322 49.6914 10.2053L49.6818 9.56067C49.672 8.81286 49.614 8.38313 49.3733 8.07052C49.1313 7.7565 48.7039 7.55267 47.9377 7.2662C47.4882 7.07339 47.3097 6.68225 47.3775 6.33656C47.4453 5.99087 47.7565 5.69889 48.2724 5.70165L48.9888 5.71267C50.6734 5.7347 52.4382 5.73057 54.0744 5.70165H54.1228C54.6193 5.71267 54.9167 5.99362 54.9859 6.32692C55.0564 6.66985 54.8821 7.06237 54.4423 7.25794C53.6692 7.55818 53.239 7.76614 52.997 8.09393C52.7854 8.38037 52.7148 8.76186 52.6914 9.38716L52.6844 9.67086C52.6319 13.6125 52.6319 16.761 52.6844 19.9465L52.6955 20.4231C52.7079 20.8707 52.7232 21.2316 52.7536 21.529C52.7937 21.9243 52.8587 22.2039 52.9707 22.4132C53.192 22.8319 53.6 22.9848 54.3925 23.2492C54.6387 23.3373 54.7992 23.482 54.8876 23.65C54.9748 23.818 54.99 24.0066 54.9457 24.183C54.8572 24.5355 54.5336 24.844 54.091 24.844C52.2418 24.8179 50.2225 24.8248 48.2752 24.844C47.8326 24.844 47.5145 24.5369 47.4259 24.1844C47.3817 24.008 47.3955 23.8193 47.4799 23.6513C47.5656 23.4833 47.7205 23.3387 47.9584 23.2478L48.242 23.1473C48.8616 22.9228 49.2018 22.7548 49.3955 22.3939C49.5075 22.1873 49.5711 21.9147 49.6112 21.5277C49.65 21.1406 49.6637 20.642 49.6762 19.9837L49.6887 19.3158C49.6983 18.6533 49.7025 18.006 49.7025 17.4083V16.783C49.7025 16.3946 49.3857 16.0793 48.9957 16.0793H40.7886C40.3971 16.0793 40.0818 16.3932 40.0818 16.783V16.8491C40.0818 17.5474 40.0818 18.5225 40.0998 19.543L40.1081 19.9823L40.1177 20.4506C40.1288 20.89 40.144 21.2466 40.1744 21.54C40.2145 21.9311 40.281 22.2066 40.393 22.416C40.5893 22.7809 40.9282 22.9476 41.5437 23.1638L41.8245 23.2588L41.8687 23.2768C42.0831 23.3635 42.227 23.4985 42.3099 23.6541C42.3984 23.8193 42.415 24.0066 42.3735 24.183C42.2906 24.5342 41.9724 24.8427 41.5105 24.8427C39.6282 24.8165 37.6421 24.8165 35.6947 24.8427C35.2355 24.8468 34.9132 24.541 34.8261 24.1899C34.7832 24.0135 34.7984 23.8262 34.8856 23.6596C34.9727 23.493 35.1331 23.3483 35.3737 23.2602L35.6545 23.1638C36.27 22.9476 36.6117 22.7768 36.8094 22.4022C36.9229 22.1873 36.9906 21.9036 37.0321 21.5015C37.0736 21.1007 37.0902 20.5828 37.104 19.9039L37.1192 18.7305C37.1497 15.9649 37.1441 13.0025 37.104 9.61718L37.0971 9.33899C37.0736 8.72335 37.0016 8.34599 36.7873 8.06088C36.5411 7.73309 36.1068 7.52237 35.3281 7.21938C34.9007 7.02932 34.7251 6.64093 34.7957 6.29938C34.8662 5.95644 35.1843 5.66859 35.7293 5.6741L35.7279 5.67548Z" fill="#280310"/>
</g>
<defs>
<clipPath id="clip0_6_123">
<rect width="99" height="30" fill="white"/>
</clipPath>
</defs>
</svg>
