<svg width="133" height="21" viewBox="0 0 133 21" fill="none" xmlns="http://www.w3.org/2000/svg">
<path d="M116.932 0.821333V0.762667C116.932 0.293333 117.254 0 117.724 0C118.193 0 118.486 0.322668 118.486 0.821333C118.486 1.29067 118.164 1.584 117.694 1.584C117.225 1.584 116.932 1.29067 116.932 0.821333ZM126.406 0.792C126.406 0.322668 126.7 0 127.198 0C127.668 0 127.99 0.293333 127.99 0.792C127.99 1.26133 127.697 1.584 127.198 1.584C126.729 1.584 126.406 1.26133 126.406 0.792ZM124.822 0.792C124.822 0.322668 125.116 0 125.614 0C126.084 0 126.406 0.293333 126.406 0.792C126.406 1.26133 126.113 1.584 125.614 1.584C125.145 1.584 124.822 1.26133 124.822 0.792ZM123.238 0.792C123.238 0.322668 123.532 0 124.03 0C124.5 0 124.822 0.293333 124.822 0.792C124.822 1.26133 124.529 1.584 124.03 1.584C123.561 1.584 123.238 1.26133 123.238 0.792ZM121.654 0.792C121.654 0.322668 121.948 0 122.446 0C122.916 0 123.238 0.293333 123.238 0.792C123.238 1.26133 122.945 1.584 122.446 1.584C121.977 1.584 121.654 1.26133 121.654 0.792ZM120.07 0.792C120.07 0.322668 120.364 0 120.862 0C121.332 0 121.654 0.293333 121.654 0.792C121.654 1.26133 121.361 1.584 120.862 1.584C120.393 1.584 120.07 1.26133 120.07 0.792ZM118.486 0.792C118.486 0.322668 118.78 0 119.278 0C119.748 0 120.07 0.293333 120.07 0.792C120.07 1.26133 119.777 1.584 119.278 1.584C118.809 1.584 118.486 1.26133 118.486 0.792ZM127.99 2.376C127.99 2.84533 127.697 3.168 127.198 3.168C126.729 3.168 126.406 2.87467 126.406 2.376C126.406 1.90667 126.7 1.584 127.198 1.584C127.668 1.584 127.99 1.90667 127.99 2.376ZM124.822 2.376C124.822 1.90667 125.116 1.584 125.614 1.584C126.084 1.584 126.406 1.87733 126.406 2.376C126.406 2.84533 126.113 3.168 125.614 3.168C125.145 3.168 124.822 2.84533 124.822 2.376ZM123.238 2.376C123.238 1.90667 123.532 1.584 124.03 1.584C124.5 1.584 124.822 1.87733 124.822 2.376C124.822 2.84533 124.529 3.168 124.03 3.168C123.561 3.168 123.238 2.84533 123.238 2.376ZM121.654 2.376C121.654 1.90667 121.948 1.584 122.446 1.584C122.916 1.584 123.238 1.87733 123.238 2.376C123.238 2.84533 122.945 3.168 122.446 3.168C121.977 3.168 121.654 2.84533 121.654 2.376ZM120.07 2.376C120.07 1.90667 120.364 1.584 120.862 1.584C121.332 1.584 121.654 1.87733 121.654 2.376C121.654 2.84533 121.361 3.168 120.862 3.168C120.393 3.168 120.07 2.84533 120.07 2.376ZM118.486 2.34667V2.40533C118.486 2.87467 118.164 3.168 117.694 3.168C117.225 3.168 116.932 2.84533 116.932 2.34667C116.932 1.87733 117.254 1.584 117.724 1.584C118.193 1.584 118.486 1.87733 118.486 2.34667ZM129.545 2.34667V2.40533C129.545 2.87467 129.222 3.168 128.753 3.168C128.284 3.168 127.99 2.84533 127.99 2.34667C127.99 1.87733 128.313 1.584 128.782 1.584C129.252 1.584 129.545 1.87733 129.545 2.34667ZM120.07 2.376C120.07 2.84533 119.777 3.168 119.278 3.168C118.809 3.168 118.486 2.87467 118.486 2.376C118.486 1.90667 118.78 1.584 119.278 1.584C119.748 1.584 120.07 1.90667 120.07 2.376ZM127.99 3.96C127.99 4.42933 127.697 4.752 127.198 4.752C126.729 4.752 126.406 4.45867 126.406 3.96C126.406 3.49067 126.7 3.168 127.198 3.168C127.668 3.168 127.99 3.49067 127.99 3.96ZM118.486 3.93067V3.98933C118.486 4.45867 118.164 4.752 117.694 4.752C117.225 4.752 116.932 4.42933 116.932 3.93067C116.932 3.46133 117.254 3.168 117.724 3.168C118.193 3.168 118.486 3.46133 118.486 3.93067ZM120.07 3.96C120.07 4.42933 119.777 4.752 119.278 4.752C118.809 4.752 118.486 4.45867 118.486 3.96C118.486 3.49067 118.78 3.168 119.278 3.168C119.748 3.168 120.07 3.49067 120.07 3.96ZM131.129 3.96C131.129 4.42933 130.836 4.752 130.337 4.752C129.926 4.752 129.633 4.51733 129.545 4.136C129.486 4.51733 129.222 4.752 128.782 4.752C128.313 4.752 127.99 4.45867 127.99 3.96C127.99 3.49067 128.284 3.168 128.782 3.168C129.193 3.168 129.486 3.40267 129.545 3.784C129.633 3.40267 129.897 3.168 130.337 3.168C130.806 3.168 131.129 3.49067 131.129 3.96ZM129.574 5.544C129.574 6.01333 129.281 6.336 128.782 6.336C128.313 6.336 127.99 6.04267 127.99 5.544C127.99 5.07467 128.284 4.752 128.782 4.752C129.252 4.752 129.574 5.07467 129.574 5.544ZM118.486 5.51467V5.544C118.486 6.01333 118.164 6.30667 117.694 6.30667C117.225 6.30667 116.932 5.984 116.932 5.51467C116.932 5.04533 117.225 4.752 117.724 4.752C118.193 4.752 118.486 5.04533 118.486 5.51467ZM120.07 5.51467V5.544C120.07 6.01333 119.748 6.30667 119.249 6.30667C118.78 6.30667 118.486 5.984 118.486 5.51467C118.486 5.04533 118.809 4.752 119.308 4.752C119.777 4.752 120.07 5.04533 120.07 5.51467ZM129.574 5.544V5.51467C129.574 5.04533 129.897 4.752 130.396 4.752C130.806 4.752 131.07 4.98667 131.129 5.368C131.217 4.98667 131.51 4.752 131.95 4.752C132.42 4.752 132.713 5.07467 132.713 5.544C132.713 6.01333 132.39 6.30667 131.892 6.30667C131.481 6.30667 131.217 6.072 131.129 5.72C131.07 6.072 130.777 6.30667 130.337 6.30667C129.868 6.30667 129.574 6.01333 129.574 5.544ZM129.574 7.09866C129.574 6.62933 129.868 6.30667 130.366 6.30667C130.777 6.30667 131.07 6.54133 131.158 6.92267C131.217 6.54133 131.481 6.30667 131.921 6.30667C132.39 6.30667 132.713 6.6 132.713 7.09866C132.713 7.568 132.42 7.89066 131.921 7.89066C131.51 7.89066 131.217 7.656 131.158 7.27466C131.07 7.656 130.806 7.89066 130.366 7.89066C129.897 7.89066 129.574 7.568 129.574 7.09866ZM118.486 7.06933V7.128C118.486 7.59733 118.164 7.89066 117.694 7.89066C117.225 7.89066 116.932 7.568 116.932 7.06933C116.932 6.6 117.254 6.30667 117.724 6.30667C118.193 6.30667 118.486 6.6 118.486 7.06933ZM120.07 7.09866C120.07 7.568 119.777 7.89066 119.278 7.89066C118.809 7.89066 118.486 7.59733 118.486 7.09866C118.486 6.62933 118.78 6.30667 119.278 6.30667C119.748 6.30667 120.07 6.62933 120.07 7.09866ZM120.07 8.68266C120.07 9.152 119.777 9.47466 119.278 9.47466C118.809 9.47466 118.486 9.18133 118.486 8.68266C118.486 8.21333 118.78 7.89066 119.278 7.89066C119.748 7.89066 120.07 8.21333 120.07 8.68266ZM118.486 8.65333V8.712C118.486 9.18133 118.164 9.47466 117.694 9.47466C117.225 9.47466 116.932 9.152 116.932 8.65333C116.932 8.184 117.254 7.89066 117.724 7.89066C118.193 7.89066 118.486 8.184 118.486 8.65333ZM129.574 8.68266C129.574 8.21333 129.868 7.89066 130.366 7.89066C130.777 7.89066 131.07 8.12533 131.158 8.50666C131.217 8.12533 131.481 7.89066 131.921 7.89066C132.39 7.89066 132.713 8.184 132.713 8.68266C132.713 9.152 132.42 9.47466 131.921 9.47466C131.51 9.47466 131.217 9.24 131.158 8.85866C131.07 9.24 130.806 9.47466 130.366 9.47466C129.897 9.47466 129.574 9.152 129.574 8.68266ZM129.574 10.2667C129.574 9.79733 129.868 9.47466 130.366 9.47466C130.777 9.47466 131.07 9.70933 131.158 10.0907C131.217 9.70933 131.481 9.47466 131.921 9.47466C132.39 9.47466 132.713 9.768 132.713 10.2667C132.713 10.736 132.42 11.0587 131.921 11.0587C131.51 11.0587 131.217 10.824 131.158 10.4427C131.07 10.824 130.806 11.0587 130.366 11.0587C129.897 11.0587 129.574 10.736 129.574 10.2667ZM118.486 10.2373V10.296C118.486 10.7653 118.164 11.0587 117.694 11.0587C117.225 11.0587 116.932 10.736 116.932 10.2373C116.932 9.768 117.254 9.47466 117.724 9.47466C118.193 9.47466 118.486 9.768 118.486 10.2373ZM120.07 10.2667C120.07 10.736 119.777 11.0587 119.278 11.0587C118.809 11.0587 118.486 10.7653 118.486 10.2667C118.486 9.79733 118.78 9.47466 119.278 9.47466C119.748 9.47466 120.07 9.79733 120.07 10.2667ZM129.574 11.8507C129.574 11.3813 129.868 11.0587 130.366 11.0587C130.777 11.0587 131.07 11.2933 131.158 11.6747C131.217 11.2933 131.481 11.0587 131.921 11.0587C132.39 11.0587 132.713 11.352 132.713 11.8507C132.713 12.32 132.42 12.6427 131.921 12.6427C131.51 12.6427 131.217 12.408 131.158 12.0267C131.07 12.408 130.806 12.6427 130.366 12.6427C129.897 12.6427 129.574 12.32 129.574 11.8507ZM120.07 11.8507C120.07 12.32 119.777 12.6427 119.278 12.6427C118.809 12.6427 118.486 12.3493 118.486 11.8507C118.486 11.3813 118.78 11.0587 119.278 11.0587C119.748 11.0587 120.07 11.3813 120.07 11.8507ZM118.486 11.8213V11.88C118.486 12.3493 118.164 12.6427 117.694 12.6427C117.225 12.6427 116.932 12.32 116.932 11.8213C116.932 11.352 117.254 11.0587 117.724 11.0587C118.193 11.0587 118.486 11.352 118.486 11.8213ZM129.574 13.4347C129.574 12.9653 129.868 12.6427 130.366 12.6427C130.777 12.6427 131.07 12.8773 131.158 13.2587C131.217 12.8773 131.481 12.6427 131.921 12.6427C132.39 12.6427 132.713 12.936 132.713 13.4347C132.713 13.904 132.42 14.2267 131.921 14.2267C131.51 14.2267 131.217 13.992 131.158 13.6107C131.07 13.992 130.806 14.2267 130.366 14.2267C129.897 14.2267 129.574 13.904 129.574 13.4347ZM118.486 13.4053V13.464C118.486 13.9333 118.164 14.2267 117.694 14.2267C117.225 14.2267 116.932 13.904 116.932 13.4053C116.932 12.936 117.254 12.6427 117.724 12.6427C118.193 12.6427 118.486 12.936 118.486 13.4053ZM120.07 13.4347C120.07 13.904 119.777 14.2267 119.278 14.2267C118.809 14.2267 118.486 13.9333 118.486 13.4347C118.486 12.9653 118.78 12.6427 119.278 12.6427C119.748 12.6427 120.07 12.9653 120.07 13.4347ZM128.782 15.7813C128.313 15.7813 127.99 15.488 127.99 14.9893C127.99 14.52 128.284 14.1973 128.782 14.1973C129.252 14.1973 129.574 14.4907 129.574 14.9893C129.574 15.4587 129.252 15.7813 128.782 15.7813ZM118.486 14.9893C118.486 14.52 118.809 14.2267 119.308 14.2267C119.777 14.2267 120.07 14.52 120.07 14.9893V15.0187C120.07 15.488 119.748 15.7813 119.249 15.7813C118.78 15.7813 118.486 15.4587 118.486 14.9893ZM129.574 15.0187V14.9893C129.574 14.52 129.897 14.2267 130.396 14.2267C130.806 14.2267 131.07 14.4613 131.129 14.8427C131.217 14.4613 131.51 14.2267 131.95 14.2267C132.42 14.2267 132.713 14.5493 132.713 15.0187C132.713 15.488 132.39 15.7813 131.892 15.7813C131.481 15.7813 131.217 15.5467 131.129 15.1947C131.07 15.5467 130.777 15.7813 130.337 15.7813C129.868 15.7813 129.574 15.488 129.574 15.0187ZM117.694 15.7813C117.225 15.7813 116.932 15.4587 116.932 14.9893C116.932 14.52 117.225 14.2267 117.724 14.2267C118.193 14.2267 118.486 14.52 118.486 14.9893V15.0187C118.486 15.488 118.164 15.7813 117.694 15.7813ZM120.07 16.5733C120.07 17.0427 119.777 17.3653 119.278 17.3653C118.809 17.3653 118.486 17.072 118.486 16.5733C118.486 16.104 118.78 15.7813 119.278 15.7813C119.748 15.7813 120.07 16.104 120.07 16.5733ZM131.129 16.5733C131.129 17.0427 130.836 17.3653 130.337 17.3653C129.926 17.3653 129.633 17.1307 129.545 16.7493C129.486 17.1307 129.222 17.3653 128.782 17.3653C128.313 17.3653 127.99 17.072 127.99 16.5733C127.99 16.104 128.284 15.7813 128.782 15.7813C129.193 15.7813 129.486 16.016 129.545 16.3973C129.633 16.016 129.897 15.7813 130.337 15.7813C130.806 15.7813 131.129 16.104 131.129 16.5733ZM118.486 16.544V16.6027C118.486 17.072 118.164 17.3653 117.694 17.3653C117.225 17.3653 116.932 17.0427 116.932 16.544C116.932 16.0747 117.254 15.7813 117.724 15.7813C118.193 15.7813 118.486 16.0747 118.486 16.544ZM127.198 17.3653C126.729 17.3653 126.406 17.072 126.406 16.5733C126.406 16.104 126.7 15.7813 127.198 15.7813C127.668 15.7813 127.99 16.0747 127.99 16.5733C127.99 17.0427 127.668 17.3653 127.198 17.3653ZM120.07 18.1573C120.07 18.6267 119.777 18.9493 119.278 18.9493C118.809 18.9493 118.486 18.656 118.486 18.1573C118.486 17.688 118.78 17.3653 119.278 17.3653C119.748 17.3653 120.07 17.688 120.07 18.1573ZM127.99 18.1573C127.99 18.6267 127.697 18.9493 127.198 18.9493C126.729 18.9493 126.406 18.656 126.406 18.1573C126.406 17.688 126.7 17.3653 127.198 17.3653C127.668 17.3653 127.99 17.688 127.99 18.1573ZM129.545 18.128V18.1867C129.545 18.656 129.222 18.9493 128.753 18.9493C128.284 18.9493 127.99 18.6267 127.99 18.128C127.99 17.6587 128.313 17.3653 128.782 17.3653C129.252 17.3653 129.545 17.6587 129.545 18.128ZM120.07 18.1573C120.07 17.688 120.364 17.3653 120.862 17.3653C121.332 17.3653 121.654 17.6587 121.654 18.1573C121.654 18.6267 121.361 18.9493 120.862 18.9493C120.393 18.9493 120.07 18.6267 120.07 18.1573ZM121.654 18.1573C121.654 17.688 121.948 17.3653 122.446 17.3653C122.916 17.3653 123.238 17.6587 123.238 18.1573C123.238 18.6267 122.945 18.9493 122.446 18.9493C121.977 18.9493 121.654 18.6267 121.654 18.1573ZM123.238 18.1573C123.238 17.688 123.532 17.3653 124.03 17.3653C124.5 17.3653 124.822 17.6587 124.822 18.1573C124.822 18.6267 124.529 18.9493 124.03 18.9493C123.561 18.9493 123.238 18.6267 123.238 18.1573ZM124.822 18.1573C124.822 17.688 125.116 17.3653 125.614 17.3653C126.084 17.3653 126.406 17.6587 126.406 18.1573C126.406 18.6267 126.113 18.9493 125.614 18.9493C125.145 18.9493 124.822 18.6267 124.822 18.1573ZM118.486 18.128V18.1867C118.486 18.656 118.164 18.9493 117.694 18.9493C117.225 18.9493 116.932 18.6267 116.932 18.128C116.932 17.6587 117.254 17.3653 117.724 17.3653C118.193 17.3653 118.486 17.6587 118.486 18.128ZM126.406 19.7413C126.406 19.272 126.7 18.9493 127.198 18.9493C127.668 18.9493 127.99 19.2427 127.99 19.7413C127.99 20.2107 127.697 20.5333 127.198 20.5333C126.729 20.5333 126.406 20.2107 126.406 19.7413ZM124.822 19.7413C124.822 19.272 125.116 18.9493 125.614 18.9493C126.084 18.9493 126.406 19.2427 126.406 19.7413C126.406 20.2107 126.113 20.5333 125.614 20.5333C125.145 20.5333 124.822 20.2107 124.822 19.7413ZM123.238 19.7413C123.238 19.272 123.532 18.9493 124.03 18.9493C124.5 18.9493 124.822 19.2427 124.822 19.7413C124.822 20.2107 124.529 20.5333 124.03 20.5333C123.561 20.5333 123.238 20.2107 123.238 19.7413ZM121.654 19.7413C121.654 19.272 121.948 18.9493 122.446 18.9493C122.916 18.9493 123.238 19.2427 123.238 19.7413C123.238 20.2107 122.945 20.5333 122.446 20.5333C121.977 20.5333 121.654 20.2107 121.654 19.7413ZM120.07 19.7413C120.07 19.272 120.364 18.9493 120.862 18.9493C121.332 18.9493 121.654 19.2427 121.654 19.7413C121.654 20.2107 121.361 20.5333 120.862 20.5333C120.393 20.5333 120.07 20.2107 120.07 19.7413ZM118.486 19.7413C118.486 19.272 118.78 18.9493 119.278 18.9493C119.748 18.9493 120.07 19.2427 120.07 19.7413C120.07 20.2107 119.777 20.5333 119.278 20.5333C118.809 20.5333 118.486 20.2107 118.486 19.7413ZM116.932 19.7707V19.712C116.932 19.2427 117.254 18.9493 117.724 18.9493C118.193 18.9493 118.486 19.272 118.486 19.7707C118.486 20.24 118.164 20.5333 117.694 20.5333C117.225 20.5333 116.932 20.24 116.932 19.7707Z" fill="black"/>
<path d="M102.695 0.792C102.695 0.322668 102.989 0 103.487 0C103.957 0 104.279 0.293333 104.279 0.792C104.279 1.26133 103.986 1.584 103.487 1.584C103.018 1.584 102.695 1.26133 102.695 0.792ZM104.279 0.792C104.279 0.322668 104.573 0 105.071 0C105.541 0 105.863 0.293333 105.863 0.792C105.863 1.26133 105.57 1.584 105.071 1.584C104.602 1.584 104.279 1.26133 104.279 0.792ZM104.279 2.376C104.279 2.84533 103.986 3.168 103.487 3.168C103.018 3.168 102.695 2.87467 102.695 2.376C102.695 1.90667 102.989 1.584 103.487 1.584C103.957 1.584 104.279 1.90667 104.279 2.376ZM105.863 2.376C105.863 2.84533 105.57 3.168 105.071 3.168C104.602 3.168 104.279 2.87467 104.279 2.376C104.279 1.90667 104.573 1.584 105.071 1.584C105.541 1.584 105.863 1.90667 105.863 2.376ZM104.279 3.96C104.279 4.42933 103.986 4.752 103.487 4.752C103.018 4.752 102.695 4.45867 102.695 3.96C102.695 3.49067 102.989 3.168 103.487 3.168C103.957 3.168 104.279 3.49067 104.279 3.96ZM105.863 3.96C105.863 4.42933 105.57 4.752 105.071 4.752C104.602 4.752 104.279 4.45867 104.279 3.96C104.279 3.49067 104.573 3.168 105.071 3.168C105.541 3.168 105.863 3.49067 105.863 3.96ZM104.279 5.51467V5.544C104.279 6.01333 103.957 6.30667 103.458 6.30667C102.989 6.30667 102.695 5.984 102.695 5.51467C102.695 5.04533 103.018 4.752 103.517 4.752C103.986 4.752 104.279 5.04533 104.279 5.51467ZM105.863 5.51467V5.544C105.863 6.01333 105.541 6.30667 105.042 6.30667C104.573 6.30667 104.279 5.984 104.279 5.51467C104.279 5.04533 104.602 4.752 105.101 4.752C105.57 4.752 105.863 5.04533 105.863 5.51467ZM104.279 7.09866C104.279 7.568 103.986 7.89066 103.487 7.89066C103.018 7.89066 102.695 7.59733 102.695 7.09866C102.695 6.62933 102.989 6.30667 103.487 6.30667C103.957 6.30667 104.279 6.62933 104.279 7.09866ZM105.863 7.09866C105.863 7.568 105.57 7.89066 105.071 7.89066C104.602 7.89066 104.279 7.59733 104.279 7.09866C104.279 6.62933 104.573 6.30667 105.071 6.30667C105.541 6.30667 105.863 6.62933 105.863 7.09866ZM104.279 8.68266C104.279 9.152 103.986 9.47466 103.487 9.47466C103.018 9.47466 102.695 9.18133 102.695 8.68266C102.695 8.21333 102.989 7.89066 103.487 7.89066C103.957 7.89066 104.279 8.21333 104.279 8.68266ZM105.863 8.68266C105.863 9.152 105.57 9.47466 105.071 9.47466C104.602 9.47466 104.279 9.18133 104.279 8.68266C104.279 8.21333 104.573 7.89066 105.071 7.89066C105.541 7.89066 105.863 8.21333 105.863 8.68266ZM104.279 10.2667C104.279 10.736 103.986 11.0587 103.487 11.0587C103.018 11.0587 102.695 10.7653 102.695 10.2667C102.695 9.79733 102.989 9.47466 103.487 9.47466C103.957 9.47466 104.279 9.79733 104.279 10.2667ZM105.863 10.2667C105.863 10.736 105.57 11.0587 105.071 11.0587C104.602 11.0587 104.279 10.7653 104.279 10.2667C104.279 9.79733 104.573 9.47466 105.071 9.47466C105.541 9.47466 105.863 9.79733 105.863 10.2667ZM104.279 11.8507C104.279 12.32 103.986 12.6427 103.487 12.6427C103.018 12.6427 102.695 12.3493 102.695 11.8507C102.695 11.3813 102.989 11.0587 103.487 11.0587C103.957 11.0587 104.279 11.3813 104.279 11.8507ZM105.863 11.8507C105.863 12.32 105.57 12.6427 105.071 12.6427C104.602 12.6427 104.279 12.3493 104.279 11.8507C104.279 11.3813 104.573 11.0587 105.071 11.0587C105.541 11.0587 105.863 11.3813 105.863 11.8507ZM104.279 13.4347C104.279 13.904 103.986 14.2267 103.487 14.2267C103.018 14.2267 102.695 13.9333 102.695 13.4347C102.695 12.9653 102.989 12.6427 103.487 12.6427C103.957 12.6427 104.279 12.9653 104.279 13.4347ZM105.863 13.4347C105.863 13.904 105.57 14.2267 105.071 14.2267C104.602 14.2267 104.279 13.9333 104.279 13.4347C104.279 12.9653 104.573 12.6427 105.071 12.6427C105.541 12.6427 105.863 12.9653 105.863 13.4347ZM104.279 14.9893V15.0187C104.279 15.488 103.957 15.7813 103.458 15.7813C102.989 15.7813 102.695 15.4587 102.695 14.9893C102.695 14.52 103.018 14.2267 103.517 14.2267C103.986 14.2267 104.279 14.52 104.279 14.9893ZM105.863 14.9893V15.0187C105.863 15.488 105.541 15.7813 105.042 15.7813C104.573 15.7813 104.279 15.4587 104.279 14.9893C104.279 14.52 104.602 14.2267 105.101 14.2267C105.57 14.2267 105.863 14.52 105.863 14.9893ZM104.279 16.5733C104.279 17.0427 103.986 17.3653 103.487 17.3653C103.018 17.3653 102.695 17.072 102.695 16.5733C102.695 16.104 102.989 15.7813 103.487 15.7813C103.957 15.7813 104.279 16.104 104.279 16.5733ZM105.863 16.5733C105.863 17.0427 105.57 17.3653 105.071 17.3653C104.602 17.3653 104.279 17.072 104.279 16.5733C104.279 16.104 104.573 15.7813 105.071 15.7813C105.541 15.7813 105.863 16.104 105.863 16.5733ZM113.754 18.1573C113.754 17.688 114.047 17.3653 114.546 17.3653C115.015 17.3653 115.338 17.6587 115.338 18.1573C115.338 18.6267 115.045 18.9493 114.546 18.9493C114.077 18.9493 113.754 18.6267 113.754 18.1573ZM104.279 18.1573C104.279 18.6267 103.986 18.9493 103.487 18.9493C103.018 18.9493 102.695 18.656 102.695 18.1573C102.695 17.688 102.989 17.3653 103.487 17.3653C103.957 17.3653 104.279 17.688 104.279 18.1573ZM105.863 18.1573C105.863 18.6267 105.57 18.9493 105.071 18.9493C104.602 18.9493 104.279 18.656 104.279 18.1573C104.279 17.688 104.573 17.3653 105.071 17.3653C105.541 17.3653 105.863 17.688 105.863 18.1573ZM105.863 18.1573C105.863 17.688 106.157 17.3653 106.655 17.3653C107.125 17.3653 107.447 17.6587 107.447 18.1573C107.447 18.6267 107.154 18.9493 106.655 18.9493C106.186 18.9493 105.863 18.6267 105.863 18.1573ZM107.447 18.1573C107.447 17.688 107.741 17.3653 108.239 17.3653C108.709 17.3653 109.031 17.6587 109.031 18.1573C109.031 18.6267 108.738 18.9493 108.239 18.9493C107.77 18.9493 107.447 18.6267 107.447 18.1573ZM109.031 18.1573C109.031 17.688 109.325 17.3653 109.823 17.3653C110.293 17.3653 110.615 17.6587 110.615 18.1573C110.615 18.6267 110.322 18.9493 109.823 18.9493C109.354 18.9493 109.031 18.6267 109.031 18.1573ZM110.615 18.1573C110.615 17.688 110.909 17.3653 111.407 17.3653C111.877 17.3653 112.199 17.6587 112.199 18.1573C112.199 18.6267 111.906 18.9493 111.407 18.9493C110.938 18.9493 110.615 18.6267 110.615 18.1573ZM112.199 18.1867V18.128C112.199 17.6587 112.522 17.3653 112.991 17.3653C113.461 17.3653 113.754 17.688 113.754 18.1867C113.754 18.656 113.431 18.9493 112.962 18.9493C112.493 18.9493 112.199 18.656 112.199 18.1867ZM112.199 19.7707V19.712C112.199 19.2427 112.522 18.9493 112.991 18.9493C113.461 18.9493 113.754 19.272 113.754 19.7707C113.754 20.24 113.431 20.5333 112.962 20.5333C112.493 20.5333 112.199 20.24 112.199 19.7707ZM110.615 19.7413C110.615 19.272 110.909 18.9493 111.407 18.9493C111.877 18.9493 112.199 19.2427 112.199 19.7413C112.199 20.2107 111.906 20.5333 111.407 20.5333C110.938 20.5333 110.615 20.2107 110.615 19.7413ZM109.031 19.7413C109.031 19.272 109.325 18.9493 109.823 18.9493C110.293 18.9493 110.615 19.2427 110.615 19.7413C110.615 20.2107 110.322 20.5333 109.823 20.5333C109.354 20.5333 109.031 20.2107 109.031 19.7413ZM107.447 19.7413C107.447 19.272 107.741 18.9493 108.239 18.9493C108.709 18.9493 109.031 19.2427 109.031 19.7413C109.031 20.2107 108.738 20.5333 108.239 20.5333C107.77 20.5333 107.447 20.2107 107.447 19.7413ZM105.863 19.7413C105.863 19.272 106.157 18.9493 106.655 18.9493C107.125 18.9493 107.447 19.2427 107.447 19.7413C107.447 20.2107 107.154 20.5333 106.655 20.5333C106.186 20.5333 105.863 20.2107 105.863 19.7413ZM104.279 19.7413C104.279 19.272 104.573 18.9493 105.071 18.9493C105.541 18.9493 105.863 19.2427 105.863 19.7413C105.863 20.2107 105.57 20.5333 105.071 20.5333C104.602 20.5333 104.279 20.2107 104.279 19.7413ZM102.695 19.7413C102.695 19.272 102.989 18.9493 103.487 18.9493C103.957 18.9493 104.279 19.2427 104.279 19.7413C104.279 20.2107 103.986 20.5333 103.487 20.5333C103.018 20.5333 102.695 20.2107 102.695 19.7413ZM113.754 19.7413C113.754 19.272 114.047 18.9493 114.546 18.9493C115.015 18.9493 115.338 19.2427 115.338 19.7413C115.338 20.2107 115.045 20.5333 114.546 20.5333C114.077 20.5333 113.754 20.2107 113.754 19.7413Z" fill="black"/>
<path d="M88.4844 0.821333V0.762667C88.4844 0.293333 88.7778 0 89.2471 0C89.7164 0 90.0391 0.293333 90.0391 0.762667C90.0391 1.26133 89.7458 1.584 89.2764 1.584C88.8071 1.584 88.4844 1.29067 88.4844 0.821333ZM90.0391 0.792C90.0391 0.322668 90.3618 0 90.8311 0C91.3298 0 91.6231 0.322668 91.6231 0.792C91.6231 1.29067 91.3004 1.584 90.8311 1.584C90.3324 1.584 90.0391 1.26133 90.0391 0.792ZM91.6231 0.792C91.6231 0.322668 91.9458 0 92.4151 0C92.9138 0 93.2071 0.322668 93.2071 0.792C93.2071 1.29067 92.8844 1.584 92.4151 1.584C91.9164 1.584 91.6231 1.26133 91.6231 0.792ZM93.2071 0.792C93.2071 0.322668 93.5298 0 93.9991 0C94.4978 0 94.7911 0.322668 94.7911 0.792C94.7911 1.29067 94.4684 1.584 93.9991 1.584C93.5004 1.584 93.2071 1.26133 93.2071 0.792ZM94.7911 0.792C94.7911 0.322668 95.1138 0 95.5831 0C96.0818 0 96.3751 0.322668 96.3751 0.792C96.3751 1.29067 96.0524 1.584 95.5831 1.584C95.0844 1.584 94.7911 1.26133 94.7911 0.792ZM88.4844 2.376C88.4844 1.87733 88.8071 1.584 89.2764 1.584C89.7164 1.584 89.9804 1.81867 90.0684 2.2C90.1271 1.81867 90.4204 1.584 90.8311 1.584C91.3298 1.584 91.6231 1.90667 91.6231 2.376C91.6231 2.87467 91.3004 3.168 90.8311 3.168C90.3911 3.168 90.1271 2.93333 90.0391 2.552C89.9804 2.93333 89.6871 3.168 89.2764 3.168C88.7778 3.168 88.4844 2.84533 88.4844 2.376ZM96.3751 2.376C96.3751 2.84533 96.0524 3.168 95.5831 3.168C95.0844 3.168 94.7911 2.84533 94.7911 2.376C94.7911 1.87733 95.1138 1.584 95.5831 1.584C96.0818 1.584 96.3751 1.90667 96.3751 2.376ZM86.9004 2.376C86.9004 1.87733 87.2231 1.584 87.6924 1.584C88.1911 1.584 88.4844 1.90667 88.4844 2.376C88.4844 2.84533 88.1618 3.168 87.6924 3.168C87.1938 3.168 86.9004 2.84533 86.9004 2.376ZM93.2071 2.376C93.2071 1.90667 93.5298 1.584 93.9991 1.584C94.4978 1.584 94.7911 1.90667 94.7911 2.376C94.7911 2.87467 94.4684 3.168 93.9991 3.168C93.5004 3.168 93.2071 2.84533 93.2071 2.376ZM91.6231 2.376C91.6231 1.90667 91.9458 1.584 92.4151 1.584C92.9138 1.584 93.2071 1.90667 93.2071 2.376C93.2071 2.87467 92.8844 3.168 92.4151 3.168C91.9164 3.168 91.6231 2.84533 91.6231 2.376ZM97.9298 2.34667V2.40533C97.9298 2.87467 97.6364 3.168 97.1671 3.168C96.6978 3.168 96.3751 2.87467 96.3751 2.40533C96.3751 1.90667 96.6684 1.584 97.1378 1.584C97.6071 1.584 97.9298 1.87733 97.9298 2.34667ZM86.9004 3.96C86.9004 3.46133 87.2231 3.168 87.6924 3.168C88.1911 3.168 88.4844 3.49067 88.4844 3.96C88.4844 4.42933 88.1618 4.752 87.6924 4.752C87.1938 4.752 86.9004 4.42933 86.9004 3.96ZM96.3751 3.96C96.3751 4.42933 96.0524 4.752 95.5831 4.752C95.0844 4.752 94.7911 4.42933 94.7911 3.96C94.7911 3.46133 95.1138 3.168 95.5831 3.168C96.0818 3.168 96.3751 3.49067 96.3751 3.96ZM85.3164 3.96C85.3164 3.46133 85.6391 3.168 86.1084 3.168C86.6071 3.168 86.9004 3.49067 86.9004 3.96C86.9004 4.42933 86.5778 4.752 86.1084 4.752C85.6098 4.752 85.3164 4.42933 85.3164 3.96ZM88.4844 3.96C88.4844 3.46133 88.8071 3.168 89.2764 3.168C89.7751 3.168 90.0684 3.49067 90.0684 3.96C90.0684 4.42933 89.7458 4.752 89.2764 4.752C88.7778 4.752 88.4844 4.42933 88.4844 3.96ZM99.5138 3.96C99.5138 4.42933 99.1911 4.752 98.7218 4.752C98.2818 4.752 98.0178 4.51733 97.9298 4.136C97.8711 4.51733 97.5778 4.752 97.1671 4.752C96.6684 4.752 96.3751 4.42933 96.3751 3.96C96.3751 3.46133 96.6978 3.168 97.1671 3.168C97.6071 3.168 97.8711 3.40267 97.9591 3.784C98.0178 3.40267 98.3111 3.168 98.7218 3.168C99.2204 3.168 99.5138 3.49067 99.5138 3.96ZM88.4844 5.51467V5.544C88.4844 6.01333 88.1911 6.30667 87.7218 6.30667C87.2231 6.30667 86.9004 6.01333 86.9004 5.544C86.9004 5.07467 87.1938 4.752 87.6631 4.752C88.1618 4.752 88.4844 5.04533 88.4844 5.51467ZM86.9004 5.51467V5.544C86.9004 6.01333 86.6071 6.30667 86.1378 6.30667C85.6391 6.30667 85.3164 6.01333 85.3164 5.544C85.3164 5.07467 85.6098 4.752 86.0791 4.752C86.5778 4.752 86.9004 5.04533 86.9004 5.51467ZM99.5138 5.51467V5.544C99.5138 6.01333 99.2204 6.30667 98.7511 6.30667C98.3111 6.30667 98.0178 6.072 97.9591 5.72C97.8711 6.072 97.6071 6.30667 97.1964 6.30667C96.6978 6.30667 96.3751 6.01333 96.3751 5.544C96.3751 5.07467 96.6684 4.752 97.1378 4.752C97.5778 4.752 97.8711 4.98667 97.9591 5.368C98.0178 4.98667 98.2818 4.752 98.6924 4.752C99.1911 4.752 99.5138 5.04533 99.5138 5.51467ZM97.9591 7.09866C97.9591 6.62933 98.2818 6.30667 98.7511 6.30667C99.1911 6.30667 99.4551 6.54133 99.5431 6.92267C99.6018 6.54133 99.8951 6.30667 100.306 6.30667C100.804 6.30667 101.098 6.62933 101.098 7.09866C101.098 7.59733 100.775 7.89066 100.306 7.89066C99.8658 7.89066 99.6018 7.656 99.5138 7.27466C99.4551 7.656 99.1618 7.89066 98.7511 7.89066C98.2524 7.89066 97.9591 7.568 97.9591 7.09866ZM86.9004 7.09866C86.9004 6.62933 87.1938 6.30667 87.6631 6.30667C88.1618 6.30667 88.4844 6.6 88.4844 7.06933V7.09866C88.4844 7.568 88.1911 7.86133 87.7218 7.86133C87.2231 7.86133 86.9004 7.568 86.9004 7.09866ZM97.9591 7.06933V7.09866C97.9591 7.568 97.6658 7.86133 97.1964 7.86133C96.6978 7.86133 96.3751 7.568 96.3751 7.09866C96.3751 6.62933 96.6684 6.30667 97.1378 6.30667C97.6364 6.30667 97.9591 6.6 97.9591 7.06933ZM85.3164 7.09866C85.3164 7.568 84.9938 7.89066 84.5244 7.89066C84.0258 7.89066 83.7324 7.568 83.7324 7.09866C83.7324 6.6 84.0551 6.30667 84.5244 6.30667C85.0231 6.30667 85.3164 6.62933 85.3164 7.09866ZM85.3164 7.09866C85.3164 6.6 85.6391 6.30667 86.1084 6.30667C86.6071 6.30667 86.9004 6.62933 86.9004 7.09866C86.9004 7.568 86.5778 7.89066 86.1084 7.89066C85.6098 7.89066 85.3164 7.568 85.3164 7.09866ZM97.9591 8.68266C97.9591 8.21333 98.2818 7.89066 98.7511 7.89066C99.1911 7.89066 99.4551 8.12533 99.5431 8.50666C99.6018 8.12533 99.8951 7.89066 100.306 7.89066C100.804 7.89066 101.098 8.21333 101.098 8.68266C101.098 9.18133 100.775 9.47466 100.306 9.47466C99.8658 9.47466 99.6018 9.24 99.5138 8.85866C99.4551 9.24 99.1618 9.47466 98.7511 9.47466C98.2524 9.47466 97.9591 9.152 97.9591 8.68266ZM85.3164 8.68266C85.3164 9.152 84.9938 9.47466 84.5244 9.47466C84.0258 9.47466 83.7324 9.152 83.7324 8.68266C83.7324 8.184 84.0551 7.89066 84.5244 7.89066C85.0231 7.89066 85.3164 8.21333 85.3164 8.68266ZM86.9004 8.68266C86.9004 9.152 86.5778 9.47466 86.1084 9.47466C85.6098 9.47466 85.3164 9.152 85.3164 8.68266C85.3164 8.184 85.6391 7.89066 86.1084 7.89066C86.6071 7.89066 86.9004 8.21333 86.9004 8.68266ZM85.3164 10.2667C85.3164 9.768 85.6391 9.47466 86.1084 9.47466C86.6071 9.47466 86.9004 9.79733 86.9004 10.2667C86.9004 10.736 86.5778 11.0587 86.1084 11.0587C85.6098 11.0587 85.3164 10.736 85.3164 10.2667ZM97.9591 10.2667C97.9591 9.79733 98.2818 9.47466 98.7511 9.47466C99.1911 9.47466 99.4551 9.70933 99.5431 10.0907C99.6018 9.70933 99.8951 9.47466 100.306 9.47466C100.804 9.47466 101.098 9.79733 101.098 10.2667C101.098 10.7653 100.775 11.0587 100.306 11.0587C99.8658 11.0587 99.6018 10.824 99.5138 10.4427C99.4551 10.824 99.1618 11.0587 98.7511 11.0587C98.2524 11.0587 97.9591 10.736 97.9591 10.2667ZM83.7324 10.2667C83.7324 9.768 84.0551 9.47466 84.5244 9.47466C85.0231 9.47466 85.3164 9.79733 85.3164 10.2667C85.3164 10.736 84.9938 11.0587 84.5244 11.0587C84.0258 11.0587 83.7324 10.736 83.7324 10.2667ZM97.9591 11.8507C97.9591 11.3813 98.2818 11.0587 98.7511 11.0587C99.1911 11.0587 99.4551 11.2933 99.5431 11.6747C99.6018 11.2933 99.8951 11.0587 100.306 11.0587C100.804 11.0587 101.098 11.3813 101.098 11.8507C101.098 12.3493 100.775 12.6427 100.306 12.6427C99.8658 12.6427 99.6018 12.408 99.5138 12.0267C99.4551 12.408 99.1618 12.6427 98.7511 12.6427C98.2524 12.6427 97.9591 12.32 97.9591 11.8507ZM85.3164 11.8507C85.3164 11.352 85.6391 11.0587 86.1084 11.0587C86.6071 11.0587 86.9004 11.3813 86.9004 11.8507C86.9004 12.32 86.5778 12.6427 86.1084 12.6427C85.6098 12.6427 85.3164 12.32 85.3164 11.8507ZM83.7324 11.8507C83.7324 11.352 84.0551 11.0587 84.5244 11.0587C85.0231 11.0587 85.3164 11.3813 85.3164 11.8507C85.3164 12.32 84.9938 12.6427 84.5244 12.6427C84.0258 12.6427 83.7324 12.32 83.7324 11.8507ZM97.9591 13.4347C97.9591 12.9653 98.2818 12.6427 98.7511 12.6427C99.1911 12.6427 99.4551 12.8773 99.5431 13.2587C99.6018 12.8773 99.8951 12.6427 100.306 12.6427C100.804 12.6427 101.098 12.9653 101.098 13.4347C101.098 13.9333 100.775 14.2267 100.306 14.2267C99.8658 14.2267 99.6018 13.992 99.5138 13.6107C99.4551 13.992 99.1618 14.2267 98.7511 14.2267C98.2524 14.2267 97.9591 13.904 97.9591 13.4347ZM85.3164 13.4347C85.3164 12.936 85.6391 12.6427 86.1084 12.6427C86.6071 12.6427 86.9004 12.9653 86.9004 13.4347C86.9004 13.904 86.5778 14.2267 86.1084 14.2267C85.6098 14.2267 85.3164 13.904 85.3164 13.4347ZM83.7324 13.4347C83.7324 12.936 84.0551 12.6427 84.5244 12.6427C85.0231 12.6427 85.3164 12.9653 85.3164 13.4347C85.3164 13.904 84.9938 14.2267 84.5244 14.2267C84.0258 14.2267 83.7324 13.904 83.7324 13.4347ZM97.9591 13.4347V13.464C97.9591 13.9333 97.6658 14.2267 97.1964 14.2267C96.6978 14.2267 96.3751 13.9333 96.3751 13.464C96.3751 12.9947 96.6684 12.672 97.1378 12.672C97.6364 12.672 97.9591 12.9653 97.9591 13.4347ZM88.4844 13.4347V13.464C88.4844 13.9333 88.1911 14.2267 87.7218 14.2267C87.2231 14.2267 86.9004 13.9333 86.9004 13.464C86.9004 12.9947 87.1938 12.672 87.6631 12.672C88.1618 12.672 88.4844 12.9653 88.4844 13.4347ZM99.5138 14.9893V15.0187C99.5138 15.488 99.2204 15.7813 98.7511 15.7813C98.3111 15.7813 98.0178 15.5467 97.9591 15.1947C97.8711 15.5467 97.6071 15.7813 97.1964 15.7813C96.6978 15.7813 96.3751 15.488 96.3751 15.0187C96.3751 14.5493 96.6684 14.2267 97.1378 14.2267C97.5778 14.2267 97.8711 14.4613 97.9591 14.8427C98.0178 14.4613 98.2818 14.2267 98.6924 14.2267C99.1911 14.2267 99.5138 14.52 99.5138 14.9893ZM86.9004 14.9893V15.0187C86.9004 15.488 86.6071 15.7813 86.1378 15.7813C85.6391 15.7813 85.3164 15.488 85.3164 15.0187C85.3164 14.5493 85.6098 14.2267 86.0791 14.2267C86.5778 14.2267 86.9004 14.52 86.9004 14.9893ZM88.4844 14.9893V15.0187C88.4844 15.488 88.1911 15.7813 87.7218 15.7813C87.2231 15.7813 86.9004 15.488 86.9004 15.0187C86.9004 14.5493 87.1938 14.2267 87.6631 14.2267C88.1618 14.2267 88.4844 14.52 88.4844 14.9893ZM99.5138 16.5733C99.5138 17.0427 99.1911 17.3653 98.7218 17.3653C98.2818 17.3653 98.0178 17.1307 97.9298 16.7493C97.8711 17.1307 97.5778 17.3653 97.1671 17.3653C96.6684 17.3653 96.3751 17.0427 96.3751 16.5733C96.3751 16.0747 96.6978 15.7813 97.1671 15.7813C97.6071 15.7813 97.8711 16.016 97.9591 16.3973C98.0178 16.016 98.3111 15.7813 98.7218 15.7813C99.2204 15.7813 99.5138 16.104 99.5138 16.5733ZM86.9004 16.5733C86.9004 16.0747 87.2231 15.7813 87.6924 15.7813C88.1911 15.7813 88.4844 16.104 88.4844 16.5733C88.4844 17.0427 88.1618 17.3653 87.6924 17.3653C87.1938 17.3653 86.9004 17.0427 86.9004 16.5733ZM88.4844 16.5733C88.4844 16.0747 88.8071 15.7813 89.2764 15.7813C89.7751 15.7813 90.0684 16.104 90.0684 16.5733C90.0684 17.0427 89.7458 17.3653 89.2764 17.3653C88.7778 17.3653 88.4844 17.0427 88.4844 16.5733ZM96.3751 16.5733C96.3751 17.0427 96.0524 17.3653 95.5831 17.3653C95.0844 17.3653 94.7911 17.0427 94.7911 16.5733C94.7911 16.0747 95.1138 15.7813 95.5831 15.7813C96.0818 15.7813 96.3751 16.104 96.3751 16.5733ZM85.3164 16.5733C85.3164 16.0747 85.6391 15.7813 86.1084 15.7813C86.6071 15.7813 86.9004 16.104 86.9004 16.5733C86.9004 17.0427 86.5778 17.3653 86.1084 17.3653C85.6098 17.3653 85.3164 17.0427 85.3164 16.5733ZM96.3751 18.1573C96.3751 18.6267 96.0524 18.9493 95.5831 18.9493C95.0844 18.9493 94.7911 18.6267 94.7911 18.1573C94.7911 17.6587 95.1138 17.3653 95.5831 17.3653C96.0818 17.3653 96.3751 17.688 96.3751 18.1573ZM97.9298 18.128V18.1867C97.9298 18.656 97.6364 18.9493 97.1671 18.9493C96.6978 18.9493 96.3751 18.656 96.3751 18.1867C96.3751 17.688 96.6684 17.3653 97.1378 17.3653C97.6071 17.3653 97.9298 17.6587 97.9298 18.128ZM88.4844 18.1573C88.4844 17.6587 88.8071 17.3653 89.2764 17.3653C89.7164 17.3653 89.9804 17.6 90.0684 17.9813C90.1271 17.6 90.4204 17.3653 90.8311 17.3653C91.3298 17.3653 91.6231 17.688 91.6231 18.1573C91.6231 18.656 91.3004 18.9493 90.8311 18.9493C90.3911 18.9493 90.1271 18.7147 90.0391 18.3333C89.9804 18.7147 89.6871 18.9493 89.2764 18.9493C88.7778 18.9493 88.4844 18.6267 88.4844 18.1573ZM91.6231 18.1573C91.6231 17.688 91.9458 17.3653 92.4151 17.3653C92.9138 17.3653 93.2071 17.688 93.2071 18.1573C93.2071 18.656 92.8844 18.9493 92.4151 18.9493C91.9164 18.9493 91.6231 18.6267 91.6231 18.1573ZM93.2071 18.1573C93.2071 17.688 93.5298 17.3653 93.9991 17.3653C94.4978 17.3653 94.7911 17.688 94.7911 18.1573C94.7911 18.656 94.4684 18.9493 93.9991 18.9493C93.5004 18.9493 93.2071 18.6267 93.2071 18.1573ZM86.9004 18.1573C86.9004 17.6587 87.2231 17.3653 87.6924 17.3653C88.1911 17.3653 88.4844 17.688 88.4844 18.1573C88.4844 18.6267 88.1618 18.9493 87.6924 18.9493C87.1938 18.9493 86.9004 18.6267 86.9004 18.1573ZM93.2071 19.7413C93.2071 19.272 93.5298 18.9493 93.9991 18.9493C94.4978 18.9493 94.7911 19.272 94.7911 19.7413C94.7911 20.24 94.4684 20.5333 93.9991 20.5333C93.5004 20.5333 93.2071 20.2107 93.2071 19.7413ZM91.6231 19.7413C91.6231 19.272 91.9458 18.9493 92.4151 18.9493C92.9138 18.9493 93.2071 19.272 93.2071 19.7413C93.2071 20.24 92.8844 20.5333 92.4151 20.5333C91.9164 20.5333 91.6231 20.2107 91.6231 19.7413ZM94.7911 19.7413C94.7911 19.272 95.1138 18.9493 95.5831 18.9493C96.0818 18.9493 96.3751 19.272 96.3751 19.7413C96.3751 20.24 96.0524 20.5333 95.5831 20.5333C95.0844 20.5333 94.7911 20.2107 94.7911 19.7413ZM88.4844 19.7707V19.712C88.4844 19.2427 88.7778 18.9493 89.2471 18.9493C89.7164 18.9493 90.0391 19.2427 90.0391 19.712C90.0391 20.2107 89.7458 20.5333 89.2764 20.5333C88.8071 20.5333 88.4844 20.24 88.4844 19.7707ZM90.0391 19.7413C90.0391 19.272 90.3618 18.9493 90.8311 18.9493C91.3298 18.9493 91.6231 19.272 91.6231 19.7413C91.6231 20.24 91.3004 20.5333 90.8311 20.5333C90.3324 20.5333 90.0391 20.2107 90.0391 19.7413Z" fill="black"/>
<path d="M69.5801 0.792C69.5801 0.322668 69.8734 0 70.3721 0C70.8414 0 71.1641 0.293333 71.1641 0.792C71.1641 1.26133 70.8707 1.584 70.3721 1.584C69.9027 1.584 69.5801 1.26133 69.5801 0.792ZM82.2227 0.792C82.2227 0.322668 82.5161 0 83.0148 0C83.4841 0 83.8068 0.293333 83.8068 0.792C83.8068 1.26133 83.5134 1.584 83.0148 1.584C82.5454 1.584 82.2227 1.26133 82.2227 0.792ZM80.6388 0.792C80.6388 0.322668 80.9321 0 81.4307 0C81.9001 0 82.2227 0.293333 82.2227 0.792C82.2227 1.26133 81.9294 1.584 81.4307 1.584C80.9614 1.584 80.6388 1.26133 80.6388 0.792ZM79.0547 0.792C79.0547 0.322668 79.3481 0 79.8468 0C80.3161 0 80.6388 0.293333 80.6388 0.792C80.6388 1.26133 80.3454 1.584 79.8468 1.584C79.3774 1.584 79.0547 1.26133 79.0547 0.792ZM77.4707 0.792C77.4707 0.322668 77.7641 0 78.2627 0C78.7321 0 79.0547 0.293333 79.0547 0.792C79.0547 1.26133 78.7614 1.584 78.2627 1.584C77.7934 1.584 77.4707 1.26133 77.4707 0.792ZM75.8868 0.792C75.8868 0.322668 76.1801 0 76.6787 0C77.1481 0 77.4707 0.293333 77.4707 0.792C77.4707 1.26133 77.1774 1.584 76.6787 1.584C76.2094 1.584 75.8868 1.26133 75.8868 0.792ZM74.3027 0.792C74.3027 0.322668 74.5961 0 75.0947 0C75.5641 0 75.8868 0.293333 75.8868 0.792C75.8868 1.26133 75.5934 1.584 75.0947 1.584C74.6254 1.584 74.3027 1.26133 74.3027 0.792ZM72.7187 0.792C72.7187 0.322668 73.0121 0 73.5107 0C73.9801 0 74.3027 0.293333 74.3027 0.792C74.3027 1.26133 74.0094 1.584 73.5107 1.584C73.0414 1.584 72.7187 1.26133 72.7187 0.792ZM71.1641 0.821333V0.762667C71.1641 0.293333 71.4867 0 71.9561 0C72.4254 0 72.7187 0.322668 72.7187 0.821333C72.7187 1.29067 72.3961 1.584 71.9268 1.584C71.4574 1.584 71.1641 1.29067 71.1641 0.821333ZM71.1641 2.40533V2.34667C71.1641 1.87733 71.4867 1.584 71.9561 1.584C72.4254 1.584 72.7187 1.90667 72.7187 2.40533C72.7187 2.87467 72.3961 3.168 71.9268 3.168C71.4574 3.168 71.1641 2.87467 71.1641 2.40533ZM79.0547 2.376C79.0547 1.90667 79.3481 1.584 79.8468 1.584C80.3161 1.584 80.6388 1.87733 80.6388 2.376C80.6388 2.84533 80.3454 3.168 79.8468 3.168C79.3774 3.168 79.0547 2.84533 79.0547 2.376ZM82.2227 2.376C82.2227 1.90667 82.5161 1.584 83.0148 1.584C83.4841 1.584 83.8068 1.87733 83.8068 2.376C83.8068 2.84533 83.5134 3.168 83.0148 3.168C82.5454 3.168 82.2227 2.84533 82.2227 2.376ZM71.1641 2.376C71.1641 2.84533 70.8707 3.168 70.3721 3.168C69.9027 3.168 69.5801 2.87467 69.5801 2.376C69.5801 1.90667 69.8734 1.584 70.3721 1.584C70.8414 1.584 71.1641 1.90667 71.1641 2.376ZM72.7187 2.376C72.7187 1.90667 73.0121 1.584 73.5107 1.584C73.9801 1.584 74.3027 1.87733 74.3027 2.376C74.3027 2.84533 74.0094 3.168 73.5107 3.168C73.0414 3.168 72.7187 2.84533 72.7187 2.376ZM74.3027 2.376C74.3027 1.90667 74.5961 1.584 75.0947 1.584C75.5641 1.584 75.8868 1.87733 75.8868 2.376C75.8868 2.84533 75.5934 3.168 75.0947 3.168C74.6254 3.168 74.3027 2.84533 74.3027 2.376ZM75.8868 2.376C75.8868 1.90667 76.1801 1.584 76.6787 1.584C77.1481 1.584 77.4707 1.87733 77.4707 2.376C77.4707 2.84533 77.1774 3.168 76.6787 3.168C76.2094 3.168 75.8868 2.84533 75.8868 2.376ZM77.4707 2.376C77.4707 1.90667 77.7641 1.584 78.2627 1.584C78.7321 1.584 79.0547 1.87733 79.0547 2.376C79.0547 2.84533 78.7614 3.168 78.2627 3.168C77.7934 3.168 77.4707 2.84533 77.4707 2.376ZM80.6388 2.376C80.6388 1.90667 80.9321 1.584 81.4307 1.584C81.9001 1.584 82.2227 1.87733 82.2227 2.376C82.2227 2.84533 81.9294 3.168 81.4307 3.168C80.9614 3.168 80.6388 2.84533 80.6388 2.376ZM71.1641 3.96C71.1641 4.42933 70.8707 4.752 70.3721 4.752C69.9027 4.752 69.5801 4.45867 69.5801 3.96C69.5801 3.49067 69.8734 3.168 70.3721 3.168C70.8414 3.168 71.1641 3.49067 71.1641 3.96ZM72.7481 3.96C72.7481 4.42933 72.4547 4.752 71.9561 4.752C71.4867 4.752 71.1641 4.45867 71.1641 3.96C71.1641 3.49067 71.4574 3.168 71.9561 3.168C72.4254 3.168 72.7481 3.49067 72.7481 3.96ZM71.1641 5.51467V5.544C71.1641 6.01333 70.8414 6.30667 70.3427 6.30667C69.8734 6.30667 69.5801 5.984 69.5801 5.51467C69.5801 5.04533 69.9027 4.752 70.4014 4.752C70.8707 4.752 71.1641 5.04533 71.1641 5.51467ZM72.7481 5.51467V5.544C72.7481 6.01333 72.4254 6.30667 71.9268 6.30667C71.4574 6.30667 71.1641 5.984 71.1641 5.51467C71.1641 5.04533 71.4867 4.752 71.9854 4.752C72.4547 4.752 72.7481 5.04533 72.7481 5.51467ZM71.1641 7.09866C71.1641 7.568 70.8707 7.89066 70.3721 7.89066C69.9027 7.89066 69.5801 7.59733 69.5801 7.09866C69.5801 6.62933 69.8734 6.30667 70.3721 6.30667C70.8414 6.30667 71.1641 6.62933 71.1641 7.09866ZM72.7481 7.09866C72.7481 7.568 72.4547 7.89066 71.9561 7.89066C71.4867 7.89066 71.1641 7.59733 71.1641 7.09866C71.1641 6.62933 71.4574 6.30667 71.9561 6.30667C72.4254 6.30667 72.7481 6.62933 72.7481 7.09866ZM71.1641 8.68266C71.1641 8.21333 71.4574 7.89066 71.9561 7.89066C72.4254 7.89066 72.7481 8.21333 72.7481 8.68266C72.7481 9.152 72.4547 9.47466 71.9561 9.47466C71.4867 9.47466 71.1641 9.18133 71.1641 8.68266ZM69.5801 8.68266C69.5801 8.21333 69.8734 7.89066 70.3721 7.89066C70.8414 7.89066 71.1641 8.21333 71.1641 8.68266C71.1641 9.152 70.8707 9.47466 70.3721 9.47466C69.9027 9.47466 69.5801 9.18133 69.5801 8.68266ZM80.6388 10.2667C80.6388 9.79733 80.9321 9.47466 81.4307 9.47466C81.9001 9.47466 82.2227 9.79733 82.2227 10.2667C82.2227 10.736 81.9294 11.0587 81.4307 11.0587C80.9614 11.0587 80.6388 10.7653 80.6388 10.2667ZM72.7187 10.2373V10.296C72.7187 10.7653 72.3961 11.0587 71.9268 11.0587C71.4574 11.0587 71.1641 10.736 71.1641 10.2373C71.1641 9.768 71.4867 9.47466 71.9561 9.47466C72.4254 9.47466 72.7187 9.768 72.7187 10.2373ZM74.3027 10.2667C74.3027 10.736 74.0094 11.0587 73.5107 11.0587C73.0414 11.0587 72.7187 10.7653 72.7187 10.2667C72.7187 9.79733 73.0121 9.47466 73.5107 9.47466C73.9801 9.47466 74.3027 9.79733 74.3027 10.2667ZM71.1641 10.2667C71.1641 10.736 70.8707 11.0587 70.3721 11.0587C69.9027 11.0587 69.5801 10.7653 69.5801 10.2667C69.5801 9.79733 69.8734 9.47466 70.3721 9.47466C70.8414 9.47466 71.1641 9.79733 71.1641 10.2667ZM75.8868 10.2667C75.8868 10.736 75.5934 11.0587 75.0947 11.0587C74.6254 11.0587 74.3027 10.7653 74.3027 10.2667C74.3027 9.79733 74.5961 9.47466 75.0947 9.47466C75.5641 9.47466 75.8868 9.79733 75.8868 10.2667ZM77.4707 10.2667C77.4707 10.736 77.1774 11.0587 76.6787 11.0587C76.2094 11.0587 75.8868 10.7653 75.8868 10.2667C75.8868 9.79733 76.1801 9.47466 76.6787 9.47466C77.1481 9.47466 77.4707 9.79733 77.4707 10.2667ZM79.0547 10.2667C79.0547 10.736 78.7614 11.0587 78.2627 11.0587C77.7934 11.0587 77.4707 10.7653 77.4707 10.2667C77.4707 9.79733 77.7641 9.47466 78.2627 9.47466C78.7321 9.47466 79.0547 9.79733 79.0547 10.2667ZM79.0547 10.2667C79.0547 9.79733 79.3481 9.47466 79.8468 9.47466C80.3161 9.47466 80.6388 9.79733 80.6388 10.2667C80.6388 10.736 80.3454 11.0587 79.8468 11.0587C79.3774 11.0587 79.0547 10.7653 79.0547 10.2667ZM74.3027 11.8507C74.3027 12.32 74.0094 12.6427 73.5107 12.6427C73.0414 12.6427 72.7187 12.3493 72.7187 11.8507C72.7187 11.3813 73.0121 11.0587 73.5107 11.0587C73.9801 11.0587 74.3027 11.3813 74.3027 11.8507ZM75.8868 11.8507C75.8868 12.32 75.5934 12.6427 75.0947 12.6427C74.6254 12.6427 74.3027 12.3493 74.3027 11.8507C74.3027 11.3813 74.5961 11.0587 75.0947 11.0587C75.5641 11.0587 75.8868 11.3813 75.8868 11.8507ZM77.4707 11.8507C77.4707 12.32 77.1774 12.6427 76.6787 12.6427C76.2094 12.6427 75.8868 12.3493 75.8868 11.8507C75.8868 11.3813 76.1801 11.0587 76.6787 11.0587C77.1481 11.0587 77.4707 11.3813 77.4707 11.8507ZM79.0547 11.8507C79.0547 12.32 78.7614 12.6427 78.2627 12.6427C77.7934 12.6427 77.4707 12.3493 77.4707 11.8507C77.4707 11.3813 77.7641 11.0587 78.2627 11.0587C78.7321 11.0587 79.0547 11.3813 79.0547 11.8507ZM80.6388 11.8507C80.6388 12.32 80.3454 12.6427 79.8468 12.6427C79.3774 12.6427 79.0547 12.3493 79.0547 11.8507C79.0547 11.3813 79.3481 11.0587 79.8468 11.0587C80.3161 11.0587 80.6388 11.3813 80.6388 11.8507ZM72.7187 11.8213V11.88C72.7187 12.3493 72.3961 12.6427 71.9268 12.6427C71.4574 12.6427 71.1641 12.32 71.1641 11.8213C71.1641 11.352 71.4867 11.0587 71.9561 11.0587C72.4254 11.0587 72.7187 11.352 72.7187 11.8213ZM82.2227 11.8507C82.2227 12.32 81.9294 12.6427 81.4307 12.6427C80.9614 12.6427 80.6388 12.3493 80.6388 11.8507C80.6388 11.3813 80.9321 11.0587 81.4307 11.0587C81.9001 11.0587 82.2227 11.3813 82.2227 11.8507ZM71.1641 11.8507C71.1641 12.32 70.8707 12.6427 70.3721 12.6427C69.9027 12.6427 69.5801 12.3493 69.5801 11.8507C69.5801 11.3813 69.8734 11.0587 70.3721 11.0587C70.8414 11.0587 71.1641 11.3813 71.1641 11.8507ZM71.1641 13.4347C71.1641 12.9653 71.4574 12.6427 71.9561 12.6427C72.4254 12.6427 72.7481 12.9653 72.7481 13.4347C72.7481 13.904 72.4547 14.2267 71.9561 14.2267C71.4867 14.2267 71.1641 13.9333 71.1641 13.4347ZM69.5801 13.4347C69.5801 12.9653 69.8734 12.6427 70.3721 12.6427C70.8414 12.6427 71.1641 12.9653 71.1641 13.4347C71.1641 13.904 70.8707 14.2267 70.3721 14.2267C69.9027 14.2267 69.5801 13.9333 69.5801 13.4347ZM71.1641 14.9893V15.0187C71.1641 15.488 70.8414 15.7813 70.3427 15.7813C69.8734 15.7813 69.5801 15.4587 69.5801 14.9893C69.5801 14.52 69.9027 14.2267 70.4014 14.2267C70.8707 14.2267 71.1641 14.52 71.1641 14.9893ZM72.7481 14.9893V15.0187C72.7481 15.488 72.4254 15.7813 71.9268 15.7813C71.4574 15.7813 71.1641 15.4587 71.1641 14.9893C71.1641 14.52 71.4867 14.2267 71.9854 14.2267C72.4547 14.2267 72.7481 14.52 72.7481 14.9893ZM71.1641 16.5733C71.1641 16.104 71.4574 15.7813 71.9561 15.7813C72.4254 15.7813 72.7481 16.104 72.7481 16.5733C72.7481 17.0427 72.4547 17.3653 71.9561 17.3653C71.4867 17.3653 71.1641 17.072 71.1641 16.5733ZM69.5801 16.5733C69.5801 16.104 69.8734 15.7813 70.3721 15.7813C70.8414 15.7813 71.1641 16.104 71.1641 16.5733C71.1641 17.0427 70.8707 17.3653 70.3721 17.3653C69.9027 17.3653 69.5801 17.072 69.5801 16.5733ZM71.1641 18.1573C71.1641 17.688 71.4574 17.3653 71.9561 17.3653C72.4254 17.3653 72.7481 17.688 72.7481 18.1573C72.7481 18.6267 72.4547 18.9493 71.9561 18.9493C71.4867 18.9493 71.1641 18.656 71.1641 18.1573ZM69.5801 18.1573C69.5801 17.688 69.8734 17.3653 70.3721 17.3653C70.8414 17.3653 71.1641 17.688 71.1641 18.1573C71.1641 18.6267 70.8707 18.9493 70.3721 18.9493C69.9027 18.9493 69.5801 18.656 69.5801 18.1573ZM71.1641 19.7413C71.1641 19.272 71.4574 18.9493 71.9561 18.9493C72.4254 18.9493 72.7481 19.2427 72.7481 19.7413C72.7481 20.2107 72.4547 20.5333 71.9561 20.5333C71.4867 20.5333 71.1641 20.2107 71.1641 19.7413ZM69.5801 19.7413C69.5801 19.272 69.8734 18.9493 70.3721 18.9493C70.8414 18.9493 71.1641 19.2427 71.1641 19.7413C71.1641 20.2107 70.8707 20.5333 70.3721 20.5333C69.9027 20.5333 69.5801 20.2107 69.5801 19.7413Z" fill="black"/>
<path d="M53.7676 0.792C53.7676 0.322668 54.0609 0 54.5596 0C55.0289 0 55.3516 0.293333 55.3516 0.792C55.3516 1.26133 55.0582 1.584 54.5596 1.584C54.0902 1.584 53.7676 1.26133 53.7676 0.792ZM66.4102 0.792C66.4102 0.322668 66.7036 0 67.2023 0C67.6716 0 67.9943 0.293333 67.9943 0.792C67.9943 1.26133 67.7009 1.584 67.2023 1.584C66.7329 1.584 66.4102 1.26133 66.4102 0.792ZM64.8263 0.792C64.8263 0.322668 65.1196 0 65.6182 0C66.0876 0 66.4102 0.293333 66.4102 0.792C66.4102 1.26133 66.1169 1.584 65.6182 1.584C65.1489 1.584 64.8263 1.26133 64.8263 0.792ZM63.2422 0.792C63.2422 0.322668 63.5356 0 64.0343 0C64.5036 0 64.8263 0.293333 64.8263 0.792C64.8263 1.26133 64.5329 1.584 64.0343 1.584C63.5649 1.584 63.2422 1.26133 63.2422 0.792ZM61.6582 0.792C61.6582 0.322668 61.9516 0 62.4502 0C62.9196 0 63.2422 0.293333 63.2422 0.792C63.2422 1.26133 62.9489 1.584 62.4502 1.584C61.9809 1.584 61.6582 1.26133 61.6582 0.792ZM60.0743 0.792C60.0743 0.322668 60.3676 0 60.8662 0C61.3356 0 61.6582 0.293333 61.6582 0.792C61.6582 1.26133 61.3649 1.584 60.8662 1.584C60.3969 1.584 60.0743 1.26133 60.0743 0.792ZM58.4902 0.792C58.4902 0.322668 58.7836 0 59.2822 0C59.7516 0 60.0743 0.293333 60.0743 0.792C60.0743 1.26133 59.7809 1.584 59.2822 1.584C58.8129 1.584 58.4902 1.26133 58.4902 0.792ZM56.9062 0.792C56.9062 0.322668 57.1996 0 57.6982 0C58.1676 0 58.4902 0.293333 58.4902 0.792C58.4902 1.26133 58.1969 1.584 57.6982 1.584C57.2289 1.584 56.9062 1.26133 56.9062 0.792ZM55.3516 0.821333V0.762667C55.3516 0.293333 55.6742 0 56.1436 0C56.6129 0 56.9062 0.322668 56.9062 0.821333C56.9062 1.29067 56.5836 1.584 56.1142 1.584C55.6449 1.584 55.3516 1.29067 55.3516 0.821333ZM55.3516 2.40533V2.34667C55.3516 1.87733 55.6742 1.584 56.1436 1.584C56.6129 1.584 56.9062 1.90667 56.9062 2.40533C56.9062 2.87467 56.5836 3.168 56.1142 3.168C55.6449 3.168 55.3516 2.87467 55.3516 2.40533ZM63.2422 2.376C63.2422 1.90667 63.5356 1.584 64.0343 1.584C64.5036 1.584 64.8263 1.87733 64.8263 2.376C64.8263 2.84533 64.5329 3.168 64.0343 3.168C63.5649 3.168 63.2422 2.84533 63.2422 2.376ZM66.4102 2.376C66.4102 1.90667 66.7036 1.584 67.2023 1.584C67.6716 1.584 67.9943 1.87733 67.9943 2.376C67.9943 2.84533 67.7009 3.168 67.2023 3.168C66.7329 3.168 66.4102 2.84533 66.4102 2.376ZM55.3516 2.376C55.3516 2.84533 55.0582 3.168 54.5596 3.168C54.0902 3.168 53.7676 2.87467 53.7676 2.376C53.7676 1.90667 54.0609 1.584 54.5596 1.584C55.0289 1.584 55.3516 1.90667 55.3516 2.376ZM56.9062 2.376C56.9062 1.90667 57.1996 1.584 57.6982 1.584C58.1676 1.584 58.4902 1.87733 58.4902 2.376C58.4902 2.84533 58.1969 3.168 57.6982 3.168C57.2289 3.168 56.9062 2.84533 56.9062 2.376ZM58.4902 2.376C58.4902 1.90667 58.7836 1.584 59.2822 1.584C59.7516 1.584 60.0743 1.87733 60.0743 2.376C60.0743 2.84533 59.7809 3.168 59.2822 3.168C58.8129 3.168 58.4902 2.84533 58.4902 2.376ZM60.0743 2.376C60.0743 1.90667 60.3676 1.584 60.8662 1.584C61.3356 1.584 61.6582 1.87733 61.6582 2.376C61.6582 2.84533 61.3649 3.168 60.8662 3.168C60.3969 3.168 60.0743 2.84533 60.0743 2.376ZM61.6582 2.376C61.6582 1.90667 61.9516 1.584 62.4502 1.584C62.9196 1.584 63.2422 1.87733 63.2422 2.376C63.2422 2.84533 62.9489 3.168 62.4502 3.168C61.9809 3.168 61.6582 2.84533 61.6582 2.376ZM64.8263 2.376C64.8263 1.90667 65.1196 1.584 65.6182 1.584C66.0876 1.584 66.4102 1.87733 66.4102 2.376C66.4102 2.84533 66.1169 3.168 65.6182 3.168C65.1489 3.168 64.8263 2.84533 64.8263 2.376ZM55.3516 3.96C55.3516 4.42933 55.0582 4.752 54.5596 4.752C54.0902 4.752 53.7676 4.45867 53.7676 3.96C53.7676 3.49067 54.0609 3.168 54.5596 3.168C55.0289 3.168 55.3516 3.49067 55.3516 3.96ZM56.9356 3.96C56.9356 4.42933 56.6422 4.752 56.1436 4.752C55.6742 4.752 55.3516 4.45867 55.3516 3.96C55.3516 3.49067 55.6449 3.168 56.1436 3.168C56.6129 3.168 56.9356 3.49067 56.9356 3.96ZM55.3516 5.51467V5.544C55.3516 6.01333 55.0289 6.30667 54.5302 6.30667C54.0609 6.30667 53.7676 5.984 53.7676 5.51467C53.7676 5.04533 54.0902 4.752 54.5889 4.752C55.0582 4.752 55.3516 5.04533 55.3516 5.51467ZM56.9356 5.51467V5.544C56.9356 6.01333 56.6129 6.30667 56.1142 6.30667C55.6449 6.30667 55.3516 5.984 55.3516 5.51467C55.3516 5.04533 55.6742 4.752 56.1729 4.752C56.6422 4.752 56.9356 5.04533 56.9356 5.51467ZM55.3516 7.09866C55.3516 7.568 55.0582 7.89066 54.5596 7.89066C54.0902 7.89066 53.7676 7.59733 53.7676 7.09866C53.7676 6.62933 54.0609 6.30667 54.5596 6.30667C55.0289 6.30667 55.3516 6.62933 55.3516 7.09866ZM56.9356 7.09866C56.9356 7.568 56.6422 7.89066 56.1436 7.89066C55.6742 7.89066 55.3516 7.59733 55.3516 7.09866C55.3516 6.62933 55.6449 6.30667 56.1436 6.30667C56.6129 6.30667 56.9356 6.62933 56.9356 7.09866ZM55.3516 8.68266C55.3516 8.21333 55.6449 7.89066 56.1436 7.89066C56.6129 7.89066 56.9356 8.21333 56.9356 8.68266C56.9356 9.152 56.6422 9.47466 56.1436 9.47466C55.6742 9.47466 55.3516 9.18133 55.3516 8.68266ZM53.7676 8.68266C53.7676 8.21333 54.0609 7.89066 54.5596 7.89066C55.0289 7.89066 55.3516 8.21333 55.3516 8.68266C55.3516 9.152 55.0582 9.47466 54.5596 9.47466C54.0902 9.47466 53.7676 9.18133 53.7676 8.68266ZM64.8263 10.2667C64.8263 9.79733 65.1196 9.47466 65.6182 9.47466C66.0876 9.47466 66.4102 9.79733 66.4102 10.2667C66.4102 10.736 66.1169 11.0587 65.6182 11.0587C65.1489 11.0587 64.8263 10.7653 64.8263 10.2667ZM56.9062 10.2373V10.296C56.9062 10.7653 56.5836 11.0587 56.1142 11.0587C55.6449 11.0587 55.3516 10.736 55.3516 10.2373C55.3516 9.768 55.6742 9.47466 56.1436 9.47466C56.6129 9.47466 56.9062 9.768 56.9062 10.2373ZM58.4902 10.2667C58.4902 10.736 58.1969 11.0587 57.6982 11.0587C57.2289 11.0587 56.9062 10.7653 56.9062 10.2667C56.9062 9.79733 57.1996 9.47466 57.6982 9.47466C58.1676 9.47466 58.4902 9.79733 58.4902 10.2667ZM55.3516 10.2667C55.3516 10.736 55.0582 11.0587 54.5596 11.0587C54.0902 11.0587 53.7676 10.7653 53.7676 10.2667C53.7676 9.79733 54.0609 9.47466 54.5596 9.47466C55.0289 9.47466 55.3516 9.79733 55.3516 10.2667ZM60.0743 10.2667C60.0743 10.736 59.7809 11.0587 59.2822 11.0587C58.8129 11.0587 58.4902 10.7653 58.4902 10.2667C58.4902 9.79733 58.7836 9.47466 59.2822 9.47466C59.7516 9.47466 60.0743 9.79733 60.0743 10.2667ZM61.6582 10.2667C61.6582 10.736 61.3649 11.0587 60.8662 11.0587C60.3969 11.0587 60.0743 10.7653 60.0743 10.2667C60.0743 9.79733 60.3676 9.47466 60.8662 9.47466C61.3356 9.47466 61.6582 9.79733 61.6582 10.2667ZM63.2422 10.2667C63.2422 10.736 62.9489 11.0587 62.4502 11.0587C61.9809 11.0587 61.6582 10.7653 61.6582 10.2667C61.6582 9.79733 61.9516 9.47466 62.4502 9.47466C62.9196 9.47466 63.2422 9.79733 63.2422 10.2667ZM63.2422 10.2667C63.2422 9.79733 63.5356 9.47466 64.0343 9.47466C64.5036 9.47466 64.8263 9.79733 64.8263 10.2667C64.8263 10.736 64.5329 11.0587 64.0343 11.0587C63.5649 11.0587 63.2422 10.7653 63.2422 10.2667ZM58.4902 11.8507C58.4902 12.32 58.1969 12.6427 57.6982 12.6427C57.2289 12.6427 56.9062 12.3493 56.9062 11.8507C56.9062 11.3813 57.1996 11.0587 57.6982 11.0587C58.1676 11.0587 58.4902 11.3813 58.4902 11.8507ZM60.0743 11.8507C60.0743 12.32 59.7809 12.6427 59.2822 12.6427C58.8129 12.6427 58.4902 12.3493 58.4902 11.8507C58.4902 11.3813 58.7836 11.0587 59.2822 11.0587C59.7516 11.0587 60.0743 11.3813 60.0743 11.8507ZM61.6582 11.8507C61.6582 12.32 61.3649 12.6427 60.8662 12.6427C60.3969 12.6427 60.0743 12.3493 60.0743 11.8507C60.0743 11.3813 60.3676 11.0587 60.8662 11.0587C61.3356 11.0587 61.6582 11.3813 61.6582 11.8507ZM63.2422 11.8507C63.2422 12.32 62.9489 12.6427 62.4502 12.6427C61.9809 12.6427 61.6582 12.3493 61.6582 11.8507C61.6582 11.3813 61.9516 11.0587 62.4502 11.0587C62.9196 11.0587 63.2422 11.3813 63.2422 11.8507ZM64.8263 11.8507C64.8263 12.32 64.5329 12.6427 64.0343 12.6427C63.5649 12.6427 63.2422 12.3493 63.2422 11.8507C63.2422 11.3813 63.5356 11.0587 64.0343 11.0587C64.5036 11.0587 64.8263 11.3813 64.8263 11.8507ZM56.9062 11.8213V11.88C56.9062 12.3493 56.5836 12.6427 56.1142 12.6427C55.6449 12.6427 55.3516 12.32 55.3516 11.8213C55.3516 11.352 55.6742 11.0587 56.1436 11.0587C56.6129 11.0587 56.9062 11.352 56.9062 11.8213ZM66.4102 11.8507C66.4102 12.32 66.1169 12.6427 65.6182 12.6427C65.1489 12.6427 64.8263 12.3493 64.8263 11.8507C64.8263 11.3813 65.1196 11.0587 65.6182 11.0587C66.0876 11.0587 66.4102 11.3813 66.4102 11.8507ZM55.3516 11.8507C55.3516 12.32 55.0582 12.6427 54.5596 12.6427C54.0902 12.6427 53.7676 12.3493 53.7676 11.8507C53.7676 11.3813 54.0609 11.0587 54.5596 11.0587C55.0289 11.0587 55.3516 11.3813 55.3516 11.8507ZM55.3516 13.4347C55.3516 12.9653 55.6449 12.6427 56.1436 12.6427C56.6129 12.6427 56.9356 12.9653 56.9356 13.4347C56.9356 13.904 56.6422 14.2267 56.1436 14.2267C55.6742 14.2267 55.3516 13.9333 55.3516 13.4347ZM53.7676 13.4347C53.7676 12.9653 54.0609 12.6427 54.5596 12.6427C55.0289 12.6427 55.3516 12.9653 55.3516 13.4347C55.3516 13.904 55.0582 14.2267 54.5596 14.2267C54.0902 14.2267 53.7676 13.9333 53.7676 13.4347ZM55.3516 14.9893V15.0187C55.3516 15.488 55.0289 15.7813 54.5302 15.7813C54.0609 15.7813 53.7676 15.4587 53.7676 14.9893C53.7676 14.52 54.0902 14.2267 54.5889 14.2267C55.0582 14.2267 55.3516 14.52 55.3516 14.9893ZM56.9356 14.9893V15.0187C56.9356 15.488 56.6129 15.7813 56.1142 15.7813C55.6449 15.7813 55.3516 15.4587 55.3516 14.9893C55.3516 14.52 55.6742 14.2267 56.1729 14.2267C56.6422 14.2267 56.9356 14.52 56.9356 14.9893ZM55.3516 16.5733C55.3516 16.104 55.6449 15.7813 56.1436 15.7813C56.6129 15.7813 56.9356 16.104 56.9356 16.5733C56.9356 17.0427 56.6422 17.3653 56.1436 17.3653C55.6742 17.3653 55.3516 17.072 55.3516 16.5733ZM53.7676 16.5733C53.7676 16.104 54.0609 15.7813 54.5596 15.7813C55.0289 15.7813 55.3516 16.104 55.3516 16.5733C55.3516 17.0427 55.0582 17.3653 54.5596 17.3653C54.0902 17.3653 53.7676 17.072 53.7676 16.5733ZM55.3516 18.1573C55.3516 17.688 55.6449 17.3653 56.1436 17.3653C56.6129 17.3653 56.9356 17.688 56.9356 18.1573C56.9356 18.6267 56.6422 18.9493 56.1436 18.9493C55.6742 18.9493 55.3516 18.656 55.3516 18.1573ZM53.7676 18.1573C53.7676 17.688 54.0609 17.3653 54.5596 17.3653C55.0289 17.3653 55.3516 17.688 55.3516 18.1573C55.3516 18.6267 55.0582 18.9493 54.5596 18.9493C54.0902 18.9493 53.7676 18.656 53.7676 18.1573ZM55.3516 19.7413C55.3516 19.272 55.6449 18.9493 56.1436 18.9493C56.6129 18.9493 56.9356 19.2427 56.9356 19.7413C56.9356 20.2107 56.6422 20.5333 56.1436 20.5333C55.6742 20.5333 55.3516 20.2107 55.3516 19.7413ZM53.7676 19.7413C53.7676 19.272 54.0609 18.9493 54.5596 18.9493C55.0289 18.9493 55.3516 19.2427 55.3516 19.7413C55.3516 20.2107 55.0582 20.5333 54.5596 20.5333C54.0902 20.5333 53.7676 20.2107 53.7676 19.7413Z" fill="black"/>
<path d="M42.7052 0.792C42.7052 0.322668 43.0278 0 43.4972 0C43.9958 0 44.2892 0.322668 44.2892 0.792C44.2892 1.29067 43.9665 1.584 43.4972 1.584C42.9985 1.584 42.7052 1.26133 42.7052 0.792ZM41.1212 0.792C41.1212 0.322668 41.4438 0 41.9132 0C42.4118 0 42.7052 0.322668 42.7052 0.792C42.7052 1.29067 42.3825 1.584 41.9132 1.584C41.4145 1.584 41.1212 1.26133 41.1212 0.792ZM41.1212 2.376C41.1212 1.87733 41.4438 1.584 41.9132 1.584C42.4118 1.584 42.7052 1.90667 42.7052 2.376C42.7052 2.84533 42.3825 3.168 41.9132 3.168C41.4145 3.168 41.1212 2.84533 41.1212 2.376ZM39.5372 2.376C39.5372 1.87733 39.8598 1.584 40.3292 1.584C40.8278 1.584 41.1212 1.90667 41.1212 2.376C41.1212 2.84533 40.7985 3.168 40.3292 3.168C39.8305 3.168 39.5372 2.84533 39.5372 2.376ZM44.2892 2.376C44.2892 2.84533 43.9665 3.168 43.4972 3.168C42.9985 3.168 42.7052 2.84533 42.7052 2.376C42.7052 1.87733 43.0278 1.584 43.4972 1.584C43.9958 1.584 44.2892 1.90667 44.2892 2.376ZM45.8438 2.34667V2.40533C45.8438 2.87467 45.5505 3.168 45.0812 3.168C44.6118 3.168 44.2892 2.87467 44.2892 2.40533C44.2892 1.90667 44.5825 1.584 45.0518 1.584C45.5212 1.584 45.8438 1.87733 45.8438 2.34667ZM41.1212 3.96C41.1212 3.46133 41.4438 3.168 41.9132 3.168C42.4118 3.168 42.7052 3.49067 42.7052 3.96C42.7052 4.42933 42.3825 4.752 41.9132 4.752C41.4145 4.752 41.1212 4.42933 41.1212 3.96ZM39.5372 3.96C39.5372 3.46133 39.8598 3.168 40.3292 3.168C40.8278 3.168 41.1212 3.49067 41.1212 3.96C41.1212 4.42933 40.7985 4.752 40.3292 4.752C39.8305 4.752 39.5372 4.42933 39.5372 3.96ZM45.8438 3.93067V3.98933C45.8438 4.45867 45.5505 4.752 45.0812 4.752C44.6118 4.752 44.2892 4.45867 44.2892 3.98933C44.2892 3.49067 44.5825 3.168 45.0518 3.168C45.5212 3.168 45.8438 3.46133 45.8438 3.93067ZM44.2892 3.96C44.2892 4.42933 43.9665 4.752 43.4972 4.752C42.9985 4.752 42.7052 4.42933 42.7052 3.96C42.7052 3.46133 43.0278 3.168 43.4972 3.168C43.9958 3.168 44.2892 3.49067 44.2892 3.96ZM41.1212 5.51467V5.544C41.1212 6.01333 40.8278 6.30667 40.3585 6.30667C39.8598 6.30667 39.5372 6.01333 39.5372 5.544C39.5372 5.07467 39.8305 4.752 40.2998 4.752C40.7985 4.752 41.1212 5.04533 41.1212 5.51467ZM39.5372 5.51467V5.544C39.5372 6.01333 39.2438 6.30667 38.7745 6.30667C38.2758 6.30667 37.9532 6.01333 37.9532 5.544C37.9532 5.07467 38.2465 4.752 38.7158 4.752C39.2145 4.752 39.5372 5.04533 39.5372 5.51467ZM47.4278 5.51467V5.544C47.4278 6.01333 47.1345 6.30667 46.6652 6.30667C46.1665 6.30667 45.8438 6.01333 45.8438 5.544C45.8438 5.07467 46.1372 4.752 46.6065 4.752C47.1052 4.752 47.4278 5.04533 47.4278 5.51467ZM45.8438 5.51467V5.544C45.8438 6.01333 45.5505 6.30667 45.0812 6.30667C44.5825 6.30667 44.2598 6.01333 44.2598 5.544C44.2598 5.07467 44.5532 4.752 45.0225 4.752C45.5212 4.752 45.8438 5.04533 45.8438 5.51467ZM39.5372 7.09866C39.5372 6.6 39.8598 6.30667 40.3292 6.30667C40.8278 6.30667 41.1212 6.62933 41.1212 7.09866C41.1212 7.568 40.7985 7.89066 40.3292 7.89066C39.8305 7.89066 39.5372 7.568 39.5372 7.09866ZM45.8438 7.09866C45.8438 6.6 46.1665 6.30667 46.6358 6.30667C47.1345 6.30667 47.4278 6.62933 47.4278 7.09866C47.4278 7.568 47.1052 7.89066 46.6358 7.89066C46.1372 7.89066 45.8438 7.568 45.8438 7.09866ZM37.9532 7.09866C37.9532 6.6 38.2758 6.30667 38.7452 6.30667C39.2438 6.30667 39.5372 6.62933 39.5372 7.09866C39.5372 7.568 39.2145 7.89066 38.7452 7.89066C38.2465 7.89066 37.9532 7.568 37.9532 7.09866ZM44.2598 7.09866C44.2598 6.6 44.5825 6.30667 45.0518 6.30667C45.5505 6.30667 45.8438 6.62933 45.8438 7.09866C45.8438 7.568 45.5212 7.89066 45.0518 7.89066C44.5532 7.89066 44.2598 7.568 44.2598 7.09866ZM39.5372 8.68266C39.5372 8.184 39.8598 7.89066 40.3292 7.89066C40.8278 7.89066 41.1212 8.21333 41.1212 8.68266C41.1212 9.152 40.7985 9.47466 40.3292 9.47466C39.8305 9.47466 39.5372 9.152 39.5372 8.68266ZM45.8438 8.68266C45.8438 8.184 46.1665 7.89066 46.6358 7.89066C47.1345 7.89066 47.4278 8.21333 47.4278 8.68266C47.4278 9.152 47.1052 9.47466 46.6358 9.47466C46.1372 9.47466 45.8438 9.152 45.8438 8.68266ZM37.9532 8.68266C37.9532 8.184 38.2758 7.89066 38.7452 7.89066C39.2438 7.89066 39.5372 8.21333 39.5372 8.68266C39.5372 9.152 39.2145 9.47466 38.7452 9.47466C38.2465 9.47466 37.9532 9.152 37.9532 8.68266ZM44.2598 8.68266C44.2598 8.184 44.5825 7.89066 45.0518 7.89066C45.5505 7.89066 45.8438 8.21333 45.8438 8.68266C45.8438 9.152 45.5212 9.47466 45.0518 9.47466C44.5532 9.47466 44.2598 9.152 44.2598 8.68266ZM37.9532 10.2667C37.9532 9.768 38.2758 9.47466 38.7452 9.47466C39.2438 9.47466 39.5372 9.79733 39.5372 10.2667C39.5372 10.736 39.2145 11.0587 38.7452 11.0587C38.2465 11.0587 37.9532 10.736 37.9532 10.2667ZM47.4278 10.2667C47.4278 10.736 47.1052 11.0587 46.6358 11.0587C46.1372 11.0587 45.8438 10.736 45.8438 10.2667C45.8438 9.768 46.1665 9.47466 46.6358 9.47466C47.1345 9.47466 47.4278 9.79733 47.4278 10.2667ZM49.0118 10.2667C49.0118 10.736 48.6892 11.0587 48.2198 11.0587C47.7212 11.0587 47.4278 10.736 47.4278 10.2667C47.4278 9.768 47.7505 9.47466 48.2198 9.47466C48.7185 9.47466 49.0118 9.79733 49.0118 10.2667ZM36.3692 10.2667C36.3692 9.768 36.6918 9.47466 37.1612 9.47466C37.6598 9.47466 37.9532 9.79733 37.9532 10.2667C37.9532 10.736 37.6305 11.0587 37.1612 11.0587C36.6625 11.0587 36.3692 10.736 36.3692 10.2667ZM37.9532 11.8507C37.9532 12.32 37.6305 12.6427 37.1612 12.6427C36.6625 12.6427 36.3692 12.32 36.3692 11.8507C36.3692 11.352 36.6918 11.0587 37.1612 11.0587C37.6598 11.0587 37.9532 11.3813 37.9532 11.8507ZM47.4278 11.8507C47.4278 11.352 47.7505 11.0587 48.2198 11.0587C48.7185 11.0587 49.0118 11.3813 49.0118 11.8507C49.0118 12.32 48.6892 12.6427 48.2198 12.6427C47.7212 12.6427 47.4278 12.32 47.4278 11.8507ZM39.5372 11.8507C39.5372 12.32 39.2145 12.6427 38.7452 12.6427C38.2465 12.6427 37.9532 12.32 37.9532 11.8507C37.9532 11.352 38.2758 11.0587 38.7452 11.0587C39.2438 11.0587 39.5372 11.3813 39.5372 11.8507ZM45.8438 11.8507C45.8438 11.352 46.1665 11.0587 46.6358 11.0587C47.1345 11.0587 47.4278 11.3813 47.4278 11.8507C47.4278 12.32 47.1052 12.6427 46.6358 12.6427C46.1372 12.6427 45.8438 12.32 45.8438 11.8507ZM45.8438 13.4347C45.8438 13.904 45.5212 14.2267 45.0518 14.2267C44.5532 14.2267 44.2598 13.904 44.2598 13.4347C44.2598 12.936 44.5825 12.6427 45.0518 12.6427C45.5505 12.6427 45.8438 12.9653 45.8438 13.4347ZM44.2598 13.4053V13.464C44.2598 13.9333 43.9665 14.2267 43.4972 14.2267C43.0278 14.2267 42.7052 13.9333 42.7052 13.464C42.7052 12.9653 42.9985 12.6427 43.4678 12.6427C43.9372 12.6427 44.2598 12.936 44.2598 13.4053ZM47.4278 13.4347C47.4278 13.904 47.1052 14.2267 46.6358 14.2267C46.1372 14.2267 45.8438 13.904 45.8438 13.4347C45.8438 12.936 46.1665 12.6427 46.6358 12.6427C47.1345 12.6427 47.4278 12.9653 47.4278 13.4347ZM49.0118 13.4347C49.0118 13.904 48.6892 14.2267 48.2198 14.2267C47.7212 14.2267 47.4278 13.904 47.4278 13.4347C47.4278 12.936 47.7505 12.6427 48.2198 12.6427C48.7185 12.6427 49.0118 12.9653 49.0118 13.4347ZM41.1212 13.4347C41.1212 12.936 41.4438 12.6427 41.9132 12.6427C42.4118 12.6427 42.7052 12.9653 42.7052 13.4347C42.7052 13.904 42.3825 14.2267 41.9132 14.2267C41.4145 14.2267 41.1212 13.904 41.1212 13.4347ZM39.5372 13.4347C39.5372 12.936 39.8598 12.6427 40.3292 12.6427C40.8278 12.6427 41.1212 12.9653 41.1212 13.4347C41.1212 13.904 40.7985 14.2267 40.3292 14.2267C39.8305 14.2267 39.5372 13.904 39.5372 13.4347ZM37.9532 13.4347C37.9532 12.936 38.2758 12.6427 38.7452 12.6427C39.2438 12.6427 39.5372 12.9653 39.5372 13.4347C39.5372 13.904 39.2145 14.2267 38.7452 14.2267C38.2465 14.2267 37.9532 13.904 37.9532 13.4347ZM36.3692 13.4347C36.3692 12.936 36.6918 12.6427 37.1612 12.6427C37.6598 12.6427 37.9532 12.9653 37.9532 13.4347C37.9532 13.904 37.6305 14.2267 37.1612 14.2267C36.6625 14.2267 36.3692 13.904 36.3692 13.4347ZM50.5958 13.4347C50.5958 13.904 50.2732 14.2267 49.8038 14.2267C49.3052 14.2267 49.0118 13.904 49.0118 13.4347C49.0118 12.936 49.3345 12.6427 49.8038 12.6427C50.3025 12.6427 50.5958 12.9653 50.5958 13.4347ZM34.7852 13.4347C34.7852 12.936 35.1078 12.6427 35.5772 12.6427C36.0758 12.6427 36.3692 12.9653 36.3692 13.4347C36.3692 13.904 36.0465 14.2267 35.5772 14.2267C35.0785 14.2267 34.7852 13.904 34.7852 13.4347ZM49.0118 14.9893V15.0187C49.0118 15.488 48.7185 15.7813 48.2492 15.7813C47.7505 15.7813 47.4278 15.488 47.4278 15.0187C47.4278 14.5493 47.7212 14.2267 48.1905 14.2267C48.6892 14.2267 49.0118 14.52 49.0118 14.9893ZM44.2598 14.9893V15.048C44.2598 15.5173 43.9665 15.8107 43.4972 15.8107C43.0278 15.8107 42.7052 15.5173 42.7052 15.048C42.7052 14.5493 42.9985 14.2267 43.4678 14.2267C43.9372 14.2267 44.2598 14.52 44.2598 14.9893ZM41.1212 15.0187C41.1212 14.52 41.4438 14.2267 41.9132 14.2267C42.4118 14.2267 42.7052 14.5493 42.7052 15.0187C42.7052 15.488 42.3825 15.8107 41.9132 15.8107C41.4145 15.8107 41.1212 15.488 41.1212 15.0187ZM39.5372 15.0187C39.5372 14.52 39.8598 14.2267 40.3292 14.2267C40.8278 14.2267 41.1212 14.5493 41.1212 15.0187C41.1212 15.488 40.7985 15.8107 40.3292 15.8107C39.8305 15.8107 39.5372 15.488 39.5372 15.0187ZM37.9532 15.0187C37.9532 14.52 38.2758 14.2267 38.7452 14.2267C39.2438 14.2267 39.5372 14.5493 39.5372 15.0187C39.5372 15.488 39.2145 15.8107 38.7452 15.8107C38.2465 15.8107 37.9532 15.488 37.9532 15.0187ZM50.5958 14.9893V15.0187C50.5958 15.488 50.3025 15.7813 49.8332 15.7813C49.3345 15.7813 49.0118 15.488 49.0118 15.0187C49.0118 14.5493 49.3052 14.2267 49.7745 14.2267C50.2732 14.2267 50.5958 14.52 50.5958 14.9893ZM45.8438 15.0187C45.8438 15.488 45.5212 15.8107 45.0518 15.8107C44.5532 15.8107 44.2598 15.488 44.2598 15.0187C44.2598 14.52 44.5825 14.2267 45.0518 14.2267C45.5505 14.2267 45.8438 14.5493 45.8438 15.0187ZM36.3692 14.9893V15.0187C36.3692 15.488 36.0758 15.7813 35.6065 15.7813C35.1078 15.7813 34.7852 15.488 34.7852 15.0187C34.7852 14.5493 35.0785 14.2267 35.5478 14.2267C36.0465 14.2267 36.3692 14.52 36.3692 14.9893ZM47.4278 15.0187C47.4278 15.488 47.1052 15.8107 46.6358 15.8107C46.1372 15.8107 45.8438 15.488 45.8438 15.0187C45.8438 14.52 46.1665 14.2267 46.6358 14.2267C47.1345 14.2267 47.4278 14.5493 47.4278 15.0187ZM37.9532 14.9893V15.0187C37.9532 15.488 37.6598 15.7813 37.1905 15.7813C36.6918 15.7813 36.3692 15.488 36.3692 15.0187C36.3692 14.5493 36.6625 14.2267 37.1318 14.2267C37.6305 14.2267 37.9532 14.52 37.9532 14.9893ZM36.3692 16.5733C36.3692 16.0747 36.6918 15.7813 37.1612 15.7813C37.6598 15.7813 37.9532 16.104 37.9532 16.5733C37.9532 17.0427 37.6305 17.3653 37.1612 17.3653C36.6625 17.3653 36.3692 17.0427 36.3692 16.5733ZM49.0118 16.5733C49.0118 16.0747 49.3345 15.7813 49.8038 15.7813C50.3025 15.7813 50.5958 16.104 50.5958 16.5733C50.5958 17.0427 50.2732 17.3653 49.8038 17.3653C49.3052 17.3653 49.0118 17.0427 49.0118 16.5733ZM50.5958 16.5733C50.5958 16.0747 50.9185 15.7813 51.3878 15.7813C51.8865 15.7813 52.1798 16.104 52.1798 16.5733C52.1798 17.0427 51.8572 17.3653 51.3878 17.3653C50.8892 17.3653 50.5958 17.0427 50.5958 16.5733ZM47.4278 16.5733C47.4278 16.0747 47.7505 15.7813 48.2198 15.7813C48.7185 15.7813 49.0118 16.104 49.0118 16.5733C49.0118 17.0427 48.6892 17.3653 48.2198 17.3653C47.7212 17.3653 47.4278 17.0427 47.4278 16.5733ZM34.7852 16.5733C34.7852 16.0747 35.1078 15.7813 35.5772 15.7813C36.0758 15.7813 36.3692 16.104 36.3692 16.5733C36.3692 17.0427 36.0465 17.3653 35.5772 17.3653C35.0785 17.3653 34.7852 17.0427 34.7852 16.5733ZM33.2012 16.5733C33.2012 16.0747 33.5238 15.7813 33.9932 15.7813C34.4918 15.7813 34.7852 16.104 34.7852 16.5733C34.7852 17.0427 34.4625 17.3653 33.9932 17.3653C33.4945 17.3653 33.2012 17.0427 33.2012 16.5733ZM34.7852 18.1573C34.7852 17.6587 35.1078 17.3653 35.5772 17.3653C36.0758 17.3653 36.3692 17.688 36.3692 18.1573C36.3692 18.6267 36.0465 18.9493 35.5772 18.9493C35.0785 18.9493 34.7852 18.6267 34.7852 18.1573ZM50.5958 18.1573C50.5958 17.688 50.9185 17.3653 51.3878 17.3653C51.8865 17.3653 52.1798 17.688 52.1798 18.1573C52.1798 18.656 51.8572 18.9493 51.3878 18.9493C50.8892 18.9493 50.5958 18.6267 50.5958 18.1573ZM49.0118 18.1573C49.0118 17.688 49.3345 17.3653 49.8038 17.3653C50.3025 17.3653 50.5958 17.688 50.5958 18.1573C50.5958 18.656 50.2732 18.9493 49.8038 18.9493C49.3052 18.9493 49.0118 18.6267 49.0118 18.1573ZM33.2012 18.1573C33.2012 17.6587 33.5238 17.3653 33.9932 17.3653C34.4918 17.3653 34.7852 17.688 34.7852 18.1573C34.7852 18.6267 34.4625 18.9493 33.9932 18.9493C33.4945 18.9493 33.2012 18.6267 33.2012 18.1573ZM34.7852 19.7413C34.7852 19.272 35.1078 18.9493 35.5772 18.9493C36.0758 18.9493 36.3692 19.272 36.3692 19.7413C36.3692 20.24 36.0465 20.5333 35.5772 20.5333C35.0785 20.5333 34.7852 20.2107 34.7852 19.7413ZM50.5958 19.7413C50.5958 19.272 50.9185 18.9493 51.3878 18.9493C51.8865 18.9493 52.1798 19.272 52.1798 19.7413C52.1798 20.24 51.8572 20.5333 51.3878 20.5333C50.8892 20.5333 50.5958 20.2107 50.5958 19.7413ZM49.0118 19.7413C49.0118 19.272 49.3345 18.9493 49.8038 18.9493C50.3025 18.9493 50.5958 19.272 50.5958 19.7413C50.5958 20.24 50.2732 20.5333 49.8038 20.5333C49.3052 20.5333 49.0118 20.2107 49.0118 19.7413ZM33.2012 19.7413C33.2012 19.272 33.5238 18.9493 33.9932 18.9493C34.4918 18.9493 34.7852 19.272 34.7852 19.7413C34.7852 20.24 34.4625 20.5333 33.9932 20.5333C33.4945 20.5333 33.2012 20.2107 33.2012 19.7413Z" fill="black"/>
<path d="M20.498 0.792C20.498 0.322668 20.8207 0 21.29 0C21.7887 0 22.082 0.322668 22.082 0.792C22.082 1.29067 21.7594 1.584 21.29 1.584C20.7914 1.584 20.498 1.26133 20.498 0.792ZM22.082 0.792C22.082 0.322668 22.4047 0 22.874 0C23.3727 0 23.666 0.322668 23.666 0.792C23.666 1.29067 23.3434 1.584 22.874 1.584C22.3754 1.584 22.082 1.26133 22.082 0.792ZM23.666 0.792C23.666 0.322668 23.9887 0 24.458 0C24.9567 0 25.25 0.322668 25.25 0.792C25.25 1.29067 24.9274 1.584 24.458 1.584C23.9594 1.584 23.666 1.26133 23.666 0.792ZM28.418 0.792C28.418 0.322668 28.7407 0 29.21 0C29.7087 0 30.002 0.322668 30.002 0.792C30.002 1.29067 29.6794 1.584 29.21 1.584C28.7114 1.584 28.418 1.26133 28.418 0.792ZM26.834 0.792C26.834 0.322668 27.1567 0 27.626 0C28.1247 0 28.418 0.322668 28.418 0.792C28.418 1.29067 28.0954 1.584 27.626 1.584C27.1274 1.584 26.834 1.26133 26.834 0.792ZM25.25 0.792C25.25 0.322668 25.5727 0 26.042 0C26.5407 0 26.834 0.322668 26.834 0.792C26.834 1.29067 26.5114 1.584 26.042 1.584C25.5434 1.584 25.25 1.26133 25.25 0.792ZM26.834 2.376C26.834 1.90667 27.1567 1.584 27.626 1.584C28.1247 1.584 28.418 1.90667 28.418 2.376C28.418 2.87467 28.0954 3.168 27.626 3.168C27.1274 3.168 26.834 2.84533 26.834 2.376ZM25.2794 2.40533V2.34667C25.2794 1.87733 25.5727 1.584 26.042 1.584C26.5114 1.584 26.834 1.87733 26.834 2.34667C26.834 2.84533 26.5407 3.168 26.0714 3.168C25.602 3.168 25.2794 2.87467 25.2794 2.40533ZM23.6954 2.376C23.6954 1.90667 24.018 1.584 24.4874 1.584C24.986 1.584 25.2794 1.90667 25.2794 2.376C25.2794 2.87467 24.9567 3.168 24.4874 3.168C23.9887 3.168 23.6954 2.84533 23.6954 2.376ZM22.1114 2.376C22.1114 1.90667 22.434 1.584 22.9034 1.584C23.402 1.584 23.6954 1.90667 23.6954 2.376C23.6954 2.87467 23.3727 3.168 22.9034 3.168C22.4047 3.168 22.1114 2.84533 22.1114 2.376ZM30.002 2.376C30.002 2.84533 29.6794 3.168 29.21 3.168C28.7114 3.168 28.418 2.84533 28.418 2.376C28.418 1.87733 28.7407 1.584 29.21 1.584C29.7087 1.584 30.002 1.90667 30.002 2.376ZM20.498 2.376C20.498 1.87733 20.8207 1.584 21.29 1.584C21.818 1.584 22.1114 1.90667 22.1114 2.376C22.1114 2.84533 21.7887 3.168 21.3194 3.168C20.7914 3.168 20.498 2.84533 20.498 2.376ZM18.914 2.376C18.914 1.87733 19.2367 1.584 19.706 1.584C20.2047 1.584 20.498 1.90667 20.498 2.376C20.498 2.84533 20.1754 3.168 19.706 3.168C19.2074 3.168 18.914 2.84533 18.914 2.376ZM31.586 2.376C31.586 2.84533 31.2634 3.168 30.794 3.168C30.2954 3.168 30.002 2.84533 30.002 2.376C30.002 1.87733 30.3247 1.584 30.794 1.584C31.2927 1.584 31.586 1.90667 31.586 2.376ZM22.082 3.96C22.082 4.42933 21.7594 4.752 21.29 4.752C20.85 4.752 20.586 4.51733 20.498 4.136C20.4394 4.51733 20.146 4.752 19.7354 4.752C19.2074 4.752 18.914 4.42933 18.914 3.96C18.914 3.46133 19.2367 3.168 19.706 3.168C20.1754 3.168 20.4394 3.40267 20.5274 3.784C20.586 3.40267 20.8794 3.168 21.29 3.168C21.7887 3.168 22.082 3.49067 22.082 3.96ZM30.002 3.96C30.002 4.42933 29.6794 4.752 29.21 4.752C28.7114 4.752 28.418 4.42933 28.418 3.96C28.418 3.46133 28.7407 3.168 29.21 3.168C29.7087 3.168 30.002 3.49067 30.002 3.96ZM31.586 3.96C31.586 4.42933 31.2634 4.752 30.794 4.752C30.2954 4.752 30.002 4.42933 30.002 3.96C30.002 3.46133 30.3247 3.168 30.794 3.168C31.2927 3.168 31.586 3.49067 31.586 3.96ZM20.498 5.544C20.498 5.95467 20.2634 6.248 19.882 6.30667C20.2634 6.39467 20.498 6.688 20.498 7.09866C20.498 7.568 20.1754 7.89066 19.706 7.89066C19.2074 7.89066 18.914 7.568 18.914 7.09866C18.914 6.65867 19.1487 6.39467 19.53 6.30667C19.1487 6.248 18.914 5.95467 18.914 5.544C18.914 5.04533 19.2367 4.752 19.706 4.752C20.2047 4.752 20.498 5.07467 20.498 5.544ZM28.418 5.544V5.51467C28.418 5.04533 28.7114 4.752 29.1807 4.752C29.6794 4.752 30.002 5.04533 30.002 5.51467C30.002 5.984 29.7087 6.30667 29.2394 6.30667C28.7407 6.30667 28.418 6.01333 28.418 5.544ZM18.914 5.51467V5.544C18.914 6.01333 18.6207 6.30667 18.1514 6.30667C17.6527 6.30667 17.3594 6.01333 17.3594 5.544C17.3594 5.07467 17.6527 4.752 18.122 4.752C18.5914 4.752 18.914 5.04533 18.914 5.51467ZM31.586 5.544V5.51467C31.586 5.04533 31.8794 4.752 32.3487 4.752C32.8474 4.752 33.17 5.04533 33.17 5.51467C33.17 5.984 32.8767 6.30667 32.4074 6.30667C31.9087 6.30667 31.586 6.01333 31.586 5.544ZM30.002 5.544V5.51467C30.002 5.04533 30.2954 4.752 30.7647 4.752C31.2634 4.752 31.586 5.04533 31.586 5.51467C31.586 5.984 31.2927 6.30667 30.8234 6.30667C30.3247 6.30667 30.002 6.01333 30.002 5.544ZM22.082 5.51467V5.544C22.082 6.01333 21.7887 6.30667 21.3194 6.30667C20.8207 6.30667 20.498 6.01333 20.498 5.544C20.498 5.07467 20.7914 4.752 21.2607 4.752C21.7594 4.752 22.082 5.04533 22.082 5.51467ZM18.914 7.06933V7.128C18.914 7.59733 18.6207 7.89066 18.1514 7.89066C17.682 7.89066 17.3594 7.59733 17.3594 7.128C17.3594 6.62933 17.6527 6.30667 18.122 6.30667C18.5914 6.30667 18.914 6.6 18.914 7.06933ZM31.586 7.09866C31.586 6.62933 31.9087 6.30667 32.378 6.30667C32.8767 6.30667 33.17 6.62933 33.17 7.09866C33.17 7.59733 32.8474 7.89066 32.378 7.89066C31.8794 7.89066 31.586 7.568 31.586 7.09866ZM30.002 7.09866C30.002 6.62933 30.3247 6.30667 30.794 6.30667C31.2927 6.30667 31.586 6.62933 31.586 7.09866C31.586 7.59733 31.2634 7.89066 30.794 7.89066C30.2954 7.89066 30.002 7.568 30.002 7.09866ZM18.914 8.65333V8.712C18.914 9.18133 18.6207 9.47466 18.1514 9.47466C17.682 9.47466 17.3594 9.18133 17.3594 8.712C17.3594 8.21333 17.6527 7.89066 18.122 7.89066C18.5914 7.89066 18.914 8.184 18.914 8.65333ZM20.498 8.68266C20.498 9.152 20.1754 9.47466 19.706 9.47466C19.2074 9.47466 18.914 9.152 18.914 8.68266C18.914 8.184 19.2367 7.89066 19.706 7.89066C20.2047 7.89066 20.498 8.21333 20.498 8.68266ZM18.914 10.2373V10.296C18.914 10.7653 18.6207 11.0587 18.1514 11.0587C17.682 11.0587 17.3594 10.7653 17.3594 10.296C17.3594 9.79733 17.6527 9.47466 18.122 9.47466C18.5914 9.47466 18.914 9.768 18.914 10.2373ZM20.498 10.2667C20.498 10.736 20.1754 11.0587 19.706 11.0587C19.2074 11.0587 18.914 10.736 18.914 10.2667C18.914 9.768 19.2367 9.47466 19.706 9.47466C20.2047 9.47466 20.498 9.79733 20.498 10.2667ZM18.914 11.8213V11.88C18.914 12.3493 18.6207 12.6427 18.1514 12.6427C17.682 12.6427 17.3594 12.3493 17.3594 11.88C17.3594 11.3813 17.6527 11.0587 18.122 11.0587C18.5914 11.0587 18.914 11.352 18.914 11.8213ZM20.498 11.8507C20.498 12.32 20.1754 12.6427 19.706 12.6427C19.2074 12.6427 18.914 12.32 18.914 11.8507C18.914 11.352 19.2367 11.0587 19.706 11.0587C20.2047 11.0587 20.498 11.3813 20.498 11.8507ZM31.586 13.4347C31.586 13.9333 31.2634 14.2267 30.794 14.2267C30.2954 14.2267 30.002 13.904 30.002 13.4347C30.002 12.9653 30.3247 12.6427 30.794 12.6427C31.2927 12.6427 31.586 12.9653 31.586 13.4347ZM31.586 13.4347C31.586 12.9653 31.9087 12.6427 32.378 12.6427C32.8767 12.6427 33.17 12.9653 33.17 13.4347C33.17 13.9333 32.8474 14.2267 32.378 14.2267C31.8794 14.2267 31.586 13.904 31.586 13.4347ZM20.498 13.4347C20.498 13.904 20.1754 14.2267 19.706 14.2267C19.2074 14.2267 18.914 13.904 18.914 13.4347C18.914 12.936 19.2367 12.6427 19.706 12.6427C20.2047 12.6427 20.498 12.9653 20.498 13.4347ZM18.914 13.4053V13.464C18.914 13.9333 18.6207 14.2267 18.1514 14.2267C17.682 14.2267 17.3594 13.9333 17.3594 13.464C17.3594 12.9653 17.6527 12.6427 18.122 12.6427C18.5914 12.6427 18.914 12.936 18.914 13.4053ZM22.082 14.9893C22.082 15.4587 21.7594 15.7813 21.29 15.7813C20.7914 15.7813 20.498 15.4587 20.498 14.9893C20.498 14.4907 20.8207 14.1973 21.29 14.1973C21.7887 14.1973 22.082 14.52 22.082 14.9893ZM28.418 15.0187V14.9893C28.418 14.52 28.7114 14.2267 29.1807 14.2267C29.6794 14.2267 30.002 14.52 30.002 14.9893C30.002 15.4587 29.7087 15.7813 29.2394 15.7813C28.7407 15.7813 28.418 15.488 28.418 15.0187ZM18.914 14.9893V15.0187C18.914 15.488 18.6207 15.7813 18.1514 15.7813C17.6527 15.7813 17.3594 15.488 17.3594 15.0187C17.3594 14.5493 17.6527 14.2267 18.122 14.2267C18.5914 14.2267 18.914 14.52 18.914 14.9893ZM20.498 14.9893V15.0187C20.498 15.488 20.2047 15.7813 19.7354 15.7813C19.2367 15.7813 18.914 15.488 18.914 15.0187C18.914 14.5493 19.2074 14.2267 19.6767 14.2267C20.1754 14.2267 20.498 14.52 20.498 14.9893ZM31.586 15.0187V14.9893C31.586 14.52 31.8794 14.2267 32.3487 14.2267C32.8474 14.2267 33.17 14.52 33.17 14.9893C33.17 15.4587 32.8767 15.7813 32.4074 15.7813C31.9087 15.7813 31.586 15.488 31.586 15.0187ZM30.002 15.0187V14.9893C30.002 14.52 30.2954 14.2267 30.7647 14.2267C31.2634 14.2267 31.586 14.52 31.586 14.9893C31.586 15.4587 31.2927 15.7813 30.8234 15.7813C30.3247 15.7813 30.002 15.488 30.002 15.0187ZM20.498 16.5733C20.498 17.0427 20.1754 17.3653 19.706 17.3653C19.2074 17.3653 18.914 17.0427 18.914 16.5733C18.914 16.0747 19.2367 15.7813 19.706 15.7813C20.2047 15.7813 20.498 16.104 20.498 16.5733ZM30.002 16.5733C30.002 17.0427 29.6794 17.3653 29.21 17.3653C28.7114 17.3653 28.418 17.0427 28.418 16.5733C28.418 16.0747 28.7407 15.7813 29.21 15.7813C29.7087 15.7813 30.002 16.104 30.002 16.5733ZM31.586 16.5733C31.586 17.0427 31.2634 17.3653 30.794 17.3653C30.2954 17.3653 30.002 17.0427 30.002 16.5733C30.002 16.0747 30.3247 15.7813 30.794 15.7813C31.2927 15.7813 31.586 16.104 31.586 16.5733ZM22.082 16.5733C22.082 17.0427 21.7594 17.3653 21.29 17.3653C20.7914 17.3653 20.498 17.0427 20.498 16.5733C20.498 16.0747 20.8207 15.7813 21.29 15.7813C21.7887 15.7813 22.082 16.104 22.082 16.5733ZM22.1114 18.1573C22.1114 18.6267 21.7887 18.9493 21.3194 18.9493C20.85 18.9493 20.586 18.7147 20.498 18.3333C20.4394 18.7147 20.146 18.9493 19.7354 18.9493C19.2074 18.9493 18.914 18.6267 18.914 18.1573C18.914 17.6587 19.2367 17.3653 19.706 17.3653C20.1754 17.3653 20.4394 17.6 20.5274 17.9813C20.586 17.6 20.8794 17.3653 21.29 17.3653C21.818 17.3653 22.1114 17.688 22.1114 18.1573ZM30.002 18.1573C30.002 18.6267 29.6794 18.9493 29.21 18.9493C28.7114 18.9493 28.418 18.6267 28.418 18.1573C28.418 17.6587 28.7407 17.3653 29.21 17.3653C29.7087 17.3653 30.002 17.688 30.002 18.1573ZM31.586 18.1573C31.586 18.6267 31.2634 18.9493 30.794 18.9493C30.2954 18.9493 30.002 18.6267 30.002 18.1573C30.002 17.6587 30.3247 17.3653 30.794 17.3653C31.2927 17.3653 31.586 17.688 31.586 18.1573ZM22.1114 18.1573C22.1114 17.688 22.434 17.3653 22.9034 17.3653C23.402 17.3653 23.6954 17.688 23.6954 18.1573C23.6954 18.656 23.3727 18.9493 22.9034 18.9493C22.4047 18.9493 22.1114 18.6267 22.1114 18.1573ZM23.6954 18.1573C23.6954 17.688 24.018 17.3653 24.4874 17.3653C24.986 17.3653 25.2794 17.688 25.2794 18.1573C25.2794 18.656 24.9567 18.9493 24.4874 18.9493C23.9887 18.9493 23.6954 18.6267 23.6954 18.1573ZM25.2794 18.1867V18.128C25.2794 17.6587 25.5727 17.3653 26.042 17.3653C26.5114 17.3653 26.834 17.6587 26.834 18.128C26.834 18.6267 26.5407 18.9493 26.0714 18.9493C25.602 18.9493 25.2794 18.656 25.2794 18.1867ZM26.834 18.1573C26.834 17.688 27.1567 17.3653 27.626 17.3653C28.1247 17.3653 28.418 17.688 28.418 18.1573C28.418 18.656 28.0954 18.9493 27.626 18.9493C27.1274 18.9493 26.834 18.6267 26.834 18.1573ZM25.2794 19.7707V19.712C25.2794 19.2427 25.5727 18.9493 26.042 18.9493C26.5114 18.9493 26.834 19.2427 26.834 19.712C26.834 20.2107 26.5407 20.5333 26.0714 20.5333C25.602 20.5333 25.2794 20.24 25.2794 19.7707ZM20.5274 19.7413C20.5274 19.272 20.85 18.9493 21.3194 18.9493C21.818 18.9493 22.1114 19.272 22.1114 19.7413C22.1114 20.24 21.7887 20.5333 21.3194 20.5333C20.8207 20.5333 20.5274 20.2107 20.5274 19.7413ZM28.418 19.7413C28.418 20.24 28.0954 20.5333 27.626 20.5333C27.1274 20.5333 26.834 20.2107 26.834 19.7413C26.834 19.272 27.1567 18.9493 27.626 18.9493C28.1247 18.9493 28.418 19.272 28.418 19.7413ZM28.418 19.7413C28.418 19.272 28.7407 18.9493 29.21 18.9493C29.7087 18.9493 30.002 19.272 30.002 19.7413C30.002 20.24 29.6794 20.5333 29.21 20.5333C28.7114 20.5333 28.418 20.2107 28.418 19.7413ZM22.1114 19.7413C22.1114 19.272 22.434 18.9493 22.9034 18.9493C23.402 18.9493 23.6954 19.272 23.6954 19.7413C23.6954 20.24 23.3727 20.5333 22.9034 20.5333C22.4047 20.5333 22.1114 20.2107 22.1114 19.7413ZM23.6954 19.7413C23.6954 19.272 24.018 18.9493 24.4874 18.9493C24.986 18.9493 25.2794 19.272 25.2794 19.7413C25.2794 20.24 24.9567 20.5333 24.4874 20.5333C23.9887 20.5333 23.6954 20.2107 23.6954 19.7413Z" fill="black"/>
<path d="M9.47467 0.792C9.47467 1.29067 9.152 1.584 8.68267 1.584C8.184 1.584 7.89067 1.26133 7.89067 0.792C7.89067 0.322668 8.21334 0 8.68267 0C9.18134 0 9.47467 0.322668 9.47467 0.792ZM3.13867 0.792C3.13867 0.322668 3.46133 0 3.93067 0C4.42933 0 4.72267 0.322668 4.72267 0.792C4.72267 1.29067 4.4 1.584 3.93067 1.584C3.432 1.584 3.13867 1.26133 3.13867 0.792ZM11.0587 0.792C11.0587 0.322668 11.3813 0 11.8507 0C12.3493 0 12.6427 0.322668 12.6427 0.792C12.6427 1.29067 12.32 1.584 11.8507 1.584C11.352 1.584 11.0587 1.26133 11.0587 0.792ZM4.72267 0.792C4.72267 0.322668 5.04534 0 5.51467 0C6.01334 0 6.30667 0.322668 6.30667 0.792C6.30667 1.29067 5.984 1.584 5.51467 1.584C5.016 1.584 4.72267 1.26133 4.72267 0.792ZM6.30667 0.792C6.30667 0.322668 6.62934 0 7.09867 0C7.59734 0 7.89067 0.322668 7.89067 0.792C7.89067 1.29067 7.568 1.584 7.09867 1.584C6.6 1.584 6.30667 1.26133 6.30667 0.792ZM9.47467 0.792C9.47467 0.322668 9.79734 0 10.2667 0C10.7653 0 11.0587 0.322668 11.0587 0.792C11.0587 1.29067 10.736 1.584 10.2667 1.584C9.768 1.584 9.47467 1.26133 9.47467 0.792ZM11.0587 2.376C11.0587 1.90667 11.3813 1.584 11.8507 1.584C12.3493 1.584 12.6427 1.90667 12.6427 2.376C12.6427 2.87467 12.32 3.168 11.8507 3.168C11.352 3.168 11.0587 2.84533 11.0587 2.376ZM9.47467 2.376C9.47467 2.87467 9.152 3.168 8.68267 3.168C8.184 3.168 7.89067 2.84533 7.89067 2.376C7.89067 1.90667 8.21334 1.584 8.68267 1.584C9.18134 1.584 9.47467 1.90667 9.47467 2.376ZM9.47467 2.376C9.47467 1.90667 9.79734 1.584 10.2667 1.584C10.7653 1.584 11.0587 1.90667 11.0587 2.376C11.0587 2.87467 10.736 3.168 10.2667 3.168C9.768 3.168 9.47467 2.84533 9.47467 2.376ZM6.30667 2.376C6.30667 1.90667 6.62934 1.584 7.09867 1.584C7.59734 1.584 7.89067 1.90667 7.89067 2.376C7.89067 2.87467 7.568 3.168 7.09867 3.168C6.6 3.168 6.30667 2.84533 6.30667 2.376ZM3.13867 2.34667V2.40533C3.13867 2.87467 2.84533 3.168 2.376 3.168C1.90667 3.168 1.584 2.87467 1.584 2.40533C1.584 1.90667 1.87733 1.584 2.34667 1.584C2.816 1.584 3.13867 1.87733 3.13867 2.34667ZM4.72267 2.376C4.72267 1.90667 5.04534 1.584 5.51467 1.584C6.01334 1.584 6.30667 1.90667 6.30667 2.376C6.30667 2.87467 5.984 3.168 5.51467 3.168C5.016 3.168 4.72267 2.84533 4.72267 2.376ZM3.13867 2.376C3.13867 1.90667 3.46133 1.584 3.93067 1.584C4.42933 1.584 4.72267 1.90667 4.72267 2.376C4.72267 2.87467 4.4 3.168 3.93067 3.168C3.432 3.168 3.13867 2.84533 3.13867 2.376ZM14.1973 2.34667V2.40533C14.1973 2.87467 13.904 3.168 13.4347 3.168C12.9653 3.168 12.6427 2.87467 12.6427 2.40533C12.6427 1.90667 12.936 1.584 13.4053 1.584C13.8747 1.584 14.1973 1.87733 14.1973 2.34667ZM1.584 3.96C1.584 4.42933 1.26133 4.752 0.792 4.752C0.293333 4.752 0 4.42933 0 3.96C0 3.46133 0.322667 3.168 0.792 3.168C1.29067 3.168 1.584 3.49067 1.584 3.96ZM14.1973 3.96C14.1973 4.42933 13.8747 4.752 13.4053 4.752C12.9653 4.752 12.7013 4.51733 12.6133 4.136C12.5547 4.51733 12.2613 4.752 11.8507 4.752C11.352 4.752 11.0587 4.42933 11.0587 3.96C11.0587 3.49067 11.3813 3.168 11.8507 3.168C12.2907 3.168 12.5547 3.40267 12.6427 3.784C12.7013 3.40267 12.9947 3.168 13.4053 3.168C13.904 3.168 14.1973 3.49067 14.1973 3.96ZM3.13867 3.93067V3.98933C3.13867 4.45867 2.84533 4.752 2.376 4.752C1.90667 4.752 1.584 4.45867 1.584 3.98933C1.584 3.49067 1.87733 3.168 2.34667 3.168C2.816 3.168 3.13867 3.46133 3.13867 3.93067ZM3.13867 3.96C3.13867 3.49067 3.46133 3.168 3.93067 3.168C4.42933 3.168 4.72267 3.49067 4.72267 3.96C4.72267 4.45867 4.4 4.752 3.93067 4.752C3.432 4.752 3.13867 4.42933 3.13867 3.96ZM14.1973 3.96C14.1973 3.49067 14.52 3.168 14.9893 3.168C15.488 3.168 15.7813 3.49067 15.7813 3.96C15.7813 4.45867 15.4587 4.752 14.9893 4.752C14.4907 4.752 14.1973 4.42933 14.1973 3.96ZM3.13867 5.51467V5.544C3.13867 6.01333 2.84533 6.30667 2.376 6.30667C1.936 6.30667 1.64267 6.072 1.584 5.72C1.496 6.072 1.232 6.30667 0.821334 6.30667C0.322667 6.30667 0 6.01333 0 5.544C0 5.07467 0.293333 4.752 0.762667 4.752C1.20267 4.752 1.496 4.98667 1.584 5.368C1.64267 4.98667 1.90667 4.752 2.31733 4.752C2.816 4.752 3.13867 5.04533 3.13867 5.51467ZM14.1973 5.544C14.1973 6.04267 13.8747 6.336 13.4053 6.336C12.9067 6.336 12.6133 6.01333 12.6133 5.544C12.6133 5.07467 12.936 4.752 13.4053 4.752C13.904 4.752 14.1973 5.07467 14.1973 5.544ZM14.1973 5.544C14.1973 5.07467 14.52 4.752 14.9893 4.752C15.488 4.752 15.7813 5.07467 15.7813 5.544C15.7813 6.04267 15.4587 6.336 14.9893 6.336C14.4907 6.336 14.1973 6.01333 14.1973 5.544ZM3.13867 7.09866C3.13867 7.568 2.816 7.89066 2.34667 7.89066C1.90667 7.89066 1.64267 7.656 1.55467 7.27466C1.496 7.656 1.20267 7.89066 0.792 7.89066C0.293333 7.89066 0 7.568 0 7.09866C0 6.6 0.322667 6.30667 0.792 6.30667C1.232 6.30667 1.496 6.54133 1.584 6.92267C1.64267 6.54133 1.936 6.30667 2.34667 6.30667C2.84533 6.30667 3.13867 6.62933 3.13867 7.09866ZM4.72267 7.09866C4.72267 7.568 4.4 7.89066 3.93067 7.89066C3.432 7.89066 3.13867 7.568 3.13867 7.09866C3.13867 6.6 3.46133 6.30667 3.93067 6.30667C4.42933 6.30667 4.72267 6.62933 4.72267 7.09866ZM4.72267 8.68266C4.72267 8.184 5.04534 7.89066 5.51467 7.89066C6.01334 7.89066 6.30667 8.21333 6.30667 8.68266C6.30667 9.152 5.984 9.47466 5.51467 9.47466C5.016 9.47466 4.72267 9.152 4.72267 8.68266ZM3.13867 8.65333V8.712C3.13867 9.18133 2.84533 9.47466 2.376 9.47466C1.90667 9.47466 1.584 9.18133 1.584 8.712C1.584 8.21333 1.87733 7.89066 2.34667 7.89066C2.816 7.89066 3.13867 8.184 3.13867 8.65333ZM11.0587 8.68266C11.0587 8.184 11.3813 7.89066 11.8507 7.89066C12.3493 7.89066 12.6427 8.21333 12.6427 8.68266C12.6427 9.152 12.32 9.47466 11.8507 9.47466C11.352 9.47466 11.0587 9.152 11.0587 8.68266ZM9.47467 8.68266C9.47467 8.184 9.79734 7.89066 10.2667 7.89066C10.7653 7.89066 11.0587 8.21333 11.0587 8.68266C11.0587 9.152 10.736 9.47466 10.2667 9.47466C9.768 9.47466 9.47467 9.152 9.47467 8.68266ZM6.30667 8.68266C6.30667 8.184 6.62934 7.89066 7.09867 7.89066C7.59734 7.89066 7.89067 8.21333 7.89067 8.68266C7.89067 9.152 7.568 9.47466 7.09867 9.47466C6.6 9.47466 6.30667 9.152 6.30667 8.68266ZM7.89067 8.68266C7.89067 8.184 8.21334 7.89066 8.68267 7.89066C9.18134 7.89066 9.47467 8.21333 9.47467 8.68266C9.47467 9.152 9.152 9.47466 8.68267 9.47466C8.184 9.47466 7.89067 9.152 7.89067 8.68266ZM3.13867 8.68266C3.13867 8.184 3.46133 7.89066 3.93067 7.89066C4.42933 7.89066 4.72267 8.21333 4.72267 8.68266C4.72267 9.152 4.4 9.47466 3.93067 9.47466C3.432 9.47466 3.13867 9.152 3.13867 8.68266ZM4.72267 10.2667C4.72267 10.736 4.4 11.0587 3.93067 11.0587C3.432 11.0587 3.13867 10.736 3.13867 10.2667C3.13867 9.768 3.46133 9.47466 3.93067 9.47466C4.42933 9.47466 4.72267 9.79733 4.72267 10.2667ZM11.0587 10.2667C11.0587 9.768 11.3813 9.47466 11.8507 9.47466C12.3493 9.47466 12.6427 9.79733 12.6427 10.2667C12.6427 10.736 12.32 11.0587 11.8507 11.0587C11.352 11.0587 11.0587 10.736 11.0587 10.2667ZM7.89067 10.2667C7.89067 9.768 8.21334 9.47466 8.68267 9.47466C9.18134 9.47466 9.47467 9.79733 9.47467 10.2667C9.47467 10.736 9.152 11.0587 8.68267 11.0587C8.184 11.0587 7.89067 10.736 7.89067 10.2667ZM14.1973 10.2373V10.296C14.1973 10.7653 13.904 11.0587 13.4347 11.0587C12.9653 11.0587 12.6427 10.7653 12.6427 10.296C12.6427 9.79733 12.936 9.47466 13.4053 9.47466C13.8747 9.47466 14.1973 9.768 14.1973 10.2373ZM9.47467 10.2667C9.47467 9.768 9.79734 9.47466 10.2667 9.47466C10.7653 9.47466 11.0587 9.79733 11.0587 10.2667C11.0587 10.736 10.736 11.0587 10.2667 11.0587C9.768 11.0587 9.47467 10.736 9.47467 10.2667ZM6.30667 10.2667C6.30667 10.736 5.984 11.0587 5.51467 11.0587C5.016 11.0587 4.72267 10.736 4.72267 10.2667C4.72267 9.768 5.04534 9.47466 5.51467 9.47466C6.01334 9.47466 6.30667 9.79733 6.30667 10.2667ZM6.30667 10.2667C6.30667 9.768 6.62934 9.47466 7.09867 9.47466C7.59734 9.47466 7.89067 9.79733 7.89067 10.2667C7.89067 10.736 7.568 11.0587 7.09867 11.0587C6.6 11.0587 6.30667 10.736 6.30667 10.2667ZM14.1973 11.8213V11.88C14.1973 12.3493 13.904 12.6427 13.4347 12.6427C12.9653 12.6427 12.6427 12.3493 12.6427 11.88C12.6427 11.3813 12.936 11.0587 13.4053 11.0587C13.8747 11.0587 14.1973 11.352 14.1973 11.8213ZM14.1973 11.8507C14.1973 11.3813 14.52 11.0587 14.9893 11.0587C15.488 11.0587 15.7813 11.3813 15.7813 11.8507C15.7813 12.3493 15.4587 12.6427 14.9893 12.6427C14.4907 12.6427 14.1973 12.32 14.1973 11.8507ZM12.6427 11.8213V11.88C12.6427 12.3493 12.3493 12.6427 11.88 12.6427C11.4107 12.6427 11.088 12.3493 11.088 11.88C11.088 11.3813 11.3813 11.0587 11.8507 11.0587C12.32 11.0587 12.6427 11.352 12.6427 11.8213ZM12.6427 13.4347C12.6427 12.9653 12.9653 12.6427 13.4347 12.6427C13.8747 12.6427 14.1387 12.8773 14.2267 13.2587C14.2853 12.8773 14.5787 12.6427 14.9893 12.6427C15.488 12.6427 15.7813 12.9653 15.7813 13.4347C15.7813 13.9333 15.4587 14.2267 14.9893 14.2267C14.5493 14.2267 14.2853 13.992 14.1973 13.6107C14.1387 13.992 13.8453 14.2267 13.4347 14.2267C12.936 14.2267 12.6427 13.904 12.6427 13.4347ZM12.6427 15.0187V14.9893C12.6427 14.52 12.936 14.2267 13.4053 14.2267C13.8453 14.2267 14.1387 14.4613 14.1973 14.8133C14.2853 14.4613 14.5493 14.2267 14.96 14.2267C15.4587 14.2267 15.7813 14.52 15.7813 14.9893C15.7813 15.4587 15.488 15.7813 15.0187 15.7813C14.5787 15.7813 14.2853 15.5467 14.1973 15.1653C14.1387 15.5467 13.8747 15.7813 13.464 15.7813C12.9653 15.7813 12.6427 15.488 12.6427 15.0187ZM3.13867 14.9893V15.0187C3.13867 15.488 2.84533 15.7813 2.376 15.7813C1.936 15.7813 1.64267 15.5467 1.584 15.1947C1.496 15.5467 1.232 15.7813 0.821334 15.7813C0.322667 15.7813 0 15.488 0 15.0187C0 14.5493 0.293333 14.2267 0.762667 14.2267C1.20267 14.2267 1.496 14.4613 1.584 14.8427C1.64267 14.4613 1.90667 14.2267 2.31733 14.2267C2.816 14.2267 3.13867 14.52 3.13867 14.9893ZM14.1973 16.5733C14.1973 16.104 14.52 15.7813 14.9893 15.7813C15.488 15.7813 15.7813 16.104 15.7813 16.5733C15.7813 17.072 15.4587 17.3653 14.9893 17.3653C14.4907 17.3653 14.1973 17.0427 14.1973 16.5733ZM1.584 16.5733C1.584 17.0427 1.26133 17.3653 0.792 17.3653C0.293333 17.3653 0 17.0427 0 16.5733C0 16.0747 0.322667 15.7813 0.792 15.7813C1.29067 15.7813 1.584 16.104 1.584 16.5733ZM3.13867 16.544V16.6027C3.13867 17.072 2.84533 17.3653 2.376 17.3653C1.90667 17.3653 1.584 17.072 1.584 16.6027C1.584 16.104 1.87733 15.7813 2.34667 15.7813C2.816 15.7813 3.13867 16.0747 3.13867 16.544ZM14.1973 16.544V16.6027C14.1973 17.072 13.904 17.3653 13.4347 17.3653C12.9653 17.3653 12.6427 17.072 12.6427 16.6027C12.6427 16.104 12.936 15.7813 13.4053 15.7813C13.8747 15.7813 14.1973 16.0747 14.1973 16.544ZM3.13867 16.5733C3.13867 16.104 3.46133 15.7813 3.93067 15.7813C4.42933 15.7813 4.72267 16.104 4.72267 16.5733C4.72267 17.072 4.4 17.3653 3.93067 17.3653C3.432 17.3653 3.13867 17.0427 3.13867 16.5733ZM11.0587 16.5733C11.0587 16.104 11.3813 15.7813 11.8507 15.7813C12.3493 15.7813 12.6427 16.104 12.6427 16.5733C12.6427 17.072 12.32 17.3653 11.8507 17.3653C11.352 17.3653 11.0587 17.0427 11.0587 16.5733ZM11.0587 18.1573C11.0587 17.688 11.3813 17.3653 11.8507 17.3653C12.3493 17.3653 12.6427 17.688 12.6427 18.1573C12.6427 18.656 12.32 18.9493 11.8507 18.9493C11.352 18.9493 11.0587 18.6267 11.0587 18.1573ZM9.47467 18.1573C9.47467 17.688 9.79734 17.3653 10.2667 17.3653C10.7653 17.3653 11.0587 17.688 11.0587 18.1573C11.0587 18.656 10.736 18.9493 10.2667 18.9493C9.768 18.9493 9.47467 18.6267 9.47467 18.1573ZM6.30667 18.1573C6.30667 17.688 6.62934 17.3653 7.09867 17.3653C7.59734 17.3653 7.89067 17.688 7.89067 18.1573C7.89067 18.656 7.568 18.9493 7.09867 18.9493C6.6 18.9493 6.30667 18.6267 6.30667 18.1573ZM4.72267 18.1573C4.72267 17.688 5.04534 17.3653 5.51467 17.3653C6.01334 17.3653 6.30667 17.688 6.30667 18.1573C6.30667 18.656 5.984 18.9493 5.51467 18.9493C5.016 18.9493 4.72267 18.6267 4.72267 18.1573ZM3.13867 18.1573C3.13867 17.688 3.46133 17.3653 3.93067 17.3653C4.42933 17.3653 4.72267 17.688 4.72267 18.1573C4.72267 18.656 4.4 18.9493 3.93067 18.9493C3.432 18.9493 3.13867 18.6267 3.13867 18.1573ZM14.1973 18.128V18.1867C14.1973 18.656 13.904 18.9493 13.4347 18.9493C12.9653 18.9493 12.6427 18.656 12.6427 18.1867C12.6427 17.688 12.936 17.3653 13.4053 17.3653C13.8747 17.3653 14.1973 17.6587 14.1973 18.128ZM3.13867 18.128V18.1867C3.13867 18.656 2.84533 18.9493 2.376 18.9493C1.90667 18.9493 1.584 18.656 1.584 18.1867C1.584 17.688 1.87733 17.3653 2.34667 17.3653C2.816 17.3653 3.13867 17.6587 3.13867 18.128ZM7.89067 18.1573C7.89067 17.688 8.21334 17.3653 8.68267 17.3653C9.18134 17.3653 9.47467 17.688 9.47467 18.1573C9.47467 18.656 9.152 18.9493 8.68267 18.9493C8.184 18.9493 7.89067 18.6267 7.89067 18.1573ZM11.0587 19.7413C11.0587 19.272 11.3813 18.9493 11.8507 18.9493C12.3493 18.9493 12.6427 19.272 12.6427 19.7413C12.6427 20.24 12.32 20.5333 11.8507 20.5333C11.352 20.5333 11.0587 20.2107 11.0587 19.7413ZM3.13867 19.7413C3.13867 19.272 3.46133 18.9493 3.93067 18.9493C4.42933 18.9493 4.72267 19.272 4.72267 19.7413C4.72267 20.24 4.4 20.5333 3.93067 20.5333C3.432 20.5333 3.13867 20.2107 3.13867 19.7413ZM9.47467 19.7413C9.47467 19.272 9.79734 18.9493 10.2667 18.9493C10.7653 18.9493 11.0587 19.272 11.0587 19.7413C11.0587 20.24 10.736 20.5333 10.2667 20.5333C9.768 20.5333 9.47467 20.2107 9.47467 19.7413ZM7.89067 19.7413C7.89067 19.272 8.21334 18.9493 8.68267 18.9493C9.18134 18.9493 9.47467 19.272 9.47467 19.7413C9.47467 20.24 9.152 20.5333 8.68267 20.5333C8.184 20.5333 7.89067 20.2107 7.89067 19.7413ZM6.30667 19.7413C6.30667 19.272 6.62934 18.9493 7.09867 18.9493C7.59734 18.9493 7.89067 19.272 7.89067 19.7413C7.89067 20.24 7.568 20.5333 7.09867 20.5333C6.6 20.5333 6.30667 20.2107 6.30667 19.7413ZM4.72267 19.7413C4.72267 19.272 5.04534 18.9493 5.51467 18.9493C6.01334 18.9493 6.30667 19.272 6.30667 19.7413C6.30667 20.24 5.984 20.5333 5.51467 20.5333C5.016 20.5333 4.72267 20.2107 4.72267 19.7413Z" fill="black"/>
</svg>
