<svg width="361" height="44" viewBox="0 0 361 44" fill="none" xmlns="http://www.w3.org/2000/svg">
<path d="M12 0.5H349C355.351 0.5 360.5 5.64873 360.5 12V32C360.5 38.3513 355.351 43.5 349 43.5H12C5.64873 43.5 0.5 38.3513 0.5 32V12C0.5 5.64873 5.64873 0.5 12 0.5Z" fill="#E6EBEA"/>
<path d="M12 0.5H349C355.351 0.5 360.5 5.64873 360.5 12V32C360.5 38.3513 355.351 43.5 349 43.5H12C5.64873 43.5 0.5 38.3513 0.5 32V12C0.5 5.64873 5.64873 0.5 12 0.5Z" stroke="#F3EFEA"/>
<circle cx="20" cy="22" r="8" fill="#CEDAD8"/>
<path d="M23.614 19.1144C23.8269 18.9014 24.1723 18.9015 24.3853 19.1144C24.5983 19.3274 24.5983 19.6727 24.3853 19.8857L18.886 25.386C18.6731 25.5989 18.3277 25.5987 18.1147 25.386L15.6143 22.8857C15.4013 22.6727 15.4013 22.3274 15.6143 22.1144C15.8274 21.9014 16.1726 21.9014 16.3857 22.1144L18.4993 24.228L23.614 19.1144Z" fill="#FCFAF8"/>
<rect x="36" y="12" width="313" height="8" rx="4" fill="url(#paint0_linear_8_173)"/>
<rect x="36" y="24" width="313" height="8" rx="4" fill="url(#paint1_linear_8_173)"/>
<defs>
<linearGradient id="paint0_linear_8_173" x1="36" y1="16" x2="349" y2="16" gradientUnits="userSpaceOnUse">
<stop stop-color="#CEDAD8"/>
<stop offset="1" stop-color="white"/>
</linearGradient>
<linearGradient id="paint1_linear_8_173" x1="36" y1="28" x2="349" y2="28" gradientUnits="userSpaceOnUse">
<stop stop-color="#CEDAD8"/>
<stop offset="1" stop-color="white"/>
</linearGradient>
</defs>
</svg>
